<svg xmlns="http://www.w3.org/2000/svg" xmlns:xlink="http://www.w3.org/1999/xlink" width="40" zoomAndPan="magnify" viewBox="0 0 30 30.000001" height="40" preserveAspectRatio="xMidYMid meet" version="1.0"><defs><clipPath id="6b4eec216c"><path d="M 1.210938 0.726562 L 28.789062 0.726562 L 28.789062 28.304688 L 1.210938 28.304688 Z M 1.210938 0.726562 " clip-rule="nonzero"/></clipPath></defs><g clip-path="url(#6b4eec216c)"><path fill="#ffffff" d="M 9.285156 0.820312 C 7.820312 0.890625 6.816406 1.125 5.941406 1.46875 C 5.035156 1.820312 4.265625 2.292969 3.503906 3.0625 C 2.738281 3.828125 2.265625 4.597656 1.917969 5.507812 C 1.578125 6.386719 1.347656 7.386719 1.285156 8.855469 C 1.21875 10.324219 1.203125 10.792969 1.210938 14.535156 C 1.21875 18.28125 1.234375 18.75 1.304688 20.21875 C 1.375 21.6875 1.609375 22.6875 1.953125 23.566406 C 2.304688 24.472656 2.777344 25.238281 3.546875 26.003906 C 4.3125 26.769531 5.082031 27.238281 5.992188 27.589844 C 6.867188 27.925781 7.871094 28.160156 9.335938 28.222656 C 10.808594 28.285156 11.277344 28.300781 15.019531 28.292969 C 18.761719 28.285156 19.234375 28.269531 20.703125 28.199219 C 22.171875 28.128906 23.171875 27.894531 24.046875 27.554688 C 24.953125 27.199219 25.722656 26.726562 26.484375 25.957031 C 27.25 25.191406 27.71875 24.421875 28.070312 23.515625 C 28.410156 22.636719 28.640625 21.632812 28.703125 20.167969 C 28.769531 18.699219 28.785156 18.226562 28.777344 14.484375 C 28.769531 10.742188 28.753906 10.273438 28.683594 8.800781 C 28.613281 7.335938 28.378906 6.335938 28.035156 5.457031 C 27.683594 4.550781 27.210938 3.785156 26.441406 3.019531 C 25.675781 2.253906 24.90625 1.785156 23.996094 1.433594 C 23.121094 1.09375 22.117188 0.863281 20.652344 0.800781 C 19.179688 0.734375 18.710938 0.71875 14.96875 0.726562 C 11.226562 0.734375 10.753906 0.75 9.285156 0.820312 M 9.445312 25.738281 C 8.101562 25.679688 7.371094 25.457031 6.886719 25.269531 C 6.242188 25.019531 5.78125 24.722656 5.296875 24.242188 C 4.816406 23.761719 4.515625 23.300781 4.265625 22.660156 C 4.074219 22.175781 3.847656 21.445312 3.785156 20.101562 C 3.714844 18.648438 3.699219 18.210938 3.695312 14.53125 C 3.6875 10.851562 3.699219 10.417969 3.765625 8.960938 C 3.820312 7.617188 4.046875 6.890625 4.234375 6.402344 C 4.480469 5.757812 4.78125 5.300781 5.261719 4.816406 C 5.742188 4.332031 6.199219 4.035156 6.84375 3.78125 C 7.328125 3.589844 8.058594 3.367188 9.402344 3.300781 C 10.855469 3.234375 11.289062 3.21875 14.972656 3.210938 C 18.652344 3.203125 19.089844 3.214844 20.542969 3.28125 C 21.886719 3.339844 22.617188 3.5625 23.101562 3.75 C 23.746094 4 24.207031 4.296875 24.6875 4.777344 C 25.171875 5.261719 25.472656 5.71875 25.722656 6.363281 C 25.914062 6.847656 26.140625 7.574219 26.203125 8.917969 C 26.269531 10.371094 26.285156 10.808594 26.292969 14.488281 C 26.300781 18.167969 26.285156 18.605469 26.222656 20.058594 C 26.164062 21.398438 25.941406 22.132812 25.753906 22.617188 C 25.503906 23.261719 25.207031 23.71875 24.726562 24.203125 C 24.242188 24.6875 23.785156 24.984375 23.140625 25.238281 C 22.65625 25.425781 21.925781 25.652344 20.585938 25.71875 C 19.132812 25.785156 18.695312 25.800781 15.015625 25.808594 C 11.335938 25.816406 10.898438 25.800781 9.445312 25.738281 M 20.683594 7.140625 C 20.683594 8.054688 21.429688 8.792969 22.339844 8.792969 C 23.253906 8.789062 23.992188 8.050781 23.992188 7.136719 C 23.988281 6.222656 23.246094 5.484375 22.332031 5.484375 C 21.421875 5.484375 20.679688 6.230469 20.683594 7.140625 M 7.914062 14.523438 C 7.921875 18.433594 11.097656 21.59375 15.007812 21.585938 C 18.914062 21.578125 22.078125 18.40625 22.070312 14.496094 C 22.0625 10.589844 18.886719 7.425781 14.980469 7.433594 C 11.070312 7.441406 7.90625 10.613281 7.914062 14.523438 M 10.398438 14.519531 C 10.394531 11.980469 12.445312 9.917969 14.984375 9.914062 C 17.523438 9.910156 19.582031 11.964844 19.589844 14.5 C 19.59375 17.039062 17.539062 19.101562 15.003906 19.105469 C 12.464844 19.109375 10.402344 17.054688 10.398438 14.519531 " fill-opacity="1" fill-rule="nonzero"/></g></svg>