<svg xmlns="http://www.w3.org/2000/svg" xmlns:xlink="http://www.w3.org/1999/xlink" width="40" zoomAndPan="magnify" viewBox="0 0 30 30.000001" height="40" preserveAspectRatio="xMidYMid meet" version="1.0"><defs><clipPath id="d706ab02ca"><path d="M 1.136719 0.648438 L 28.71875 0.648438 L 28.71875 28 L 1.136719 28 Z M 1.136719 0.648438 " clip-rule="nonzero"/></clipPath></defs><g clip-path="url(#d706ab02ca)"><path fill="#ffffff" d="M 24.308594 23.847656 L 20.277344 23.847656 L 20.277344 17.535156 C 20.277344 16.03125 20.25 14.09375 18.183594 14.09375 C 16.113281 14.09375 15.761719 15.734375 15.761719 17.429688 L 15.761719 23.847656 L 11.734375 23.847656 L 11.734375 10.871094 L 15.601562 10.871094 L 15.601562 12.644531 L 15.65625 12.644531 C 16.441406 11.296875 17.910156 10.488281 19.472656 10.546875 C 23.554688 10.546875 24.308594 13.234375 24.308594 16.730469 Z M 7.1875 9.097656 C 5.894531 9.097656 4.847656 8.050781 4.847656 6.757812 C 4.847656 5.464844 5.894531 4.421875 7.1875 4.417969 C 8.476562 4.417969 9.523438 5.464844 9.523438 6.757812 C 9.527344 8.050781 8.480469 9.09375 7.1875 9.097656 M 9.203125 23.847656 L 5.167969 23.847656 L 5.167969 10.871094 L 9.203125 10.871094 Z M 26.316406 0.675781 L 3.144531 0.675781 C 2.046875 0.664062 1.148438 1.542969 1.136719 2.636719 L 1.136719 25.910156 C 1.148438 27.003906 2.046875 27.882812 3.144531 27.871094 L 26.320312 27.871094 C 27.417969 27.886719 28.316406 27.007812 28.332031 25.910156 L 28.332031 2.636719 C 28.316406 1.539062 27.414062 0.660156 26.316406 0.675781 " fill-opacity="1" fill-rule="nonzero"/></g></svg>