<svg xmlns="http://www.w3.org/2000/svg" xmlns:xlink="http://www.w3.org/1999/xlink" width="40" zoomAndPan="magnify" viewBox="0 0 30 30.000001" height="40" preserveAspectRatio="xMidYMid meet" version="1.0"><defs><clipPath id="765cd4c1b9"><path d="M 1.839844 1.363281 L 27.96875 1.363281 L 27.96875 27.492188 L 1.839844 27.492188 Z M 1.839844 1.363281 " clip-rule="nonzero"/></clipPath></defs><g clip-path="url(#765cd4c1b9)"><path fill="#ffffff" d="M 24.246094 5.207031 C 21.78125 2.742188 18.503906 1.378906 15.011719 1.378906 C 7.8125 1.378906 1.953125 7.238281 1.949219 14.4375 C 1.949219 16.738281 2.550781 18.988281 3.695312 20.964844 L 1.839844 27.734375 L 8.765625 25.917969 C 10.671875 26.957031 12.820312 27.503906 15.003906 27.507812 L 15.011719 27.507812 C 22.207031 27.507812 28.066406 21.648438 28.070312 14.449219 C 28.070312 10.957031 26.714844 7.679688 24.246094 5.207031 Z M 15.011719 25.300781 L 15.007812 25.300781 C 13.058594 25.300781 11.148438 24.777344 9.480469 23.789062 L 9.085938 23.550781 L 4.976562 24.628906 L 6.074219 20.625 L 5.816406 20.214844 C 4.726562 18.484375 4.15625 16.488281 4.15625 14.4375 C 4.160156 8.453125 9.027344 3.582031 15.015625 3.582031 C 17.914062 3.582031 20.636719 4.714844 22.6875 6.765625 C 24.738281 8.820312 25.863281 11.546875 25.863281 14.445312 C 25.859375 20.429688 20.992188 25.300781 15.007812 25.300781 Z M 20.964844 17.171875 C 20.636719 17.007812 19.035156 16.21875 18.734375 16.113281 C 18.433594 16.003906 18.21875 15.949219 18 16.273438 C 17.785156 16.601562 17.15625 17.335938 16.96875 17.554688 C 16.777344 17.773438 16.585938 17.800781 16.261719 17.636719 C 15.933594 17.472656 14.882812 17.125 13.636719 16.015625 C 12.667969 15.148438 12.011719 14.082031 11.820312 13.753906 C 11.628906 13.425781 11.800781 13.25 11.964844 13.089844 C 12.109375 12.941406 12.289062 12.707031 12.453125 12.515625 C 12.617188 12.328125 12.671875 12.191406 12.78125 11.972656 C 12.890625 11.753906 12.835938 11.5625 12.753906 11.398438 C 12.671875 11.238281 12.019531 9.628906 11.746094 8.976562 C 11.480469 8.339844 11.210938 8.425781 11.011719 8.417969 C 10.824219 8.40625 10.605469 8.40625 10.386719 8.40625 C 10.167969 8.40625 9.816406 8.484375 9.515625 8.8125 C 9.21875 9.140625 8.375 9.929688 8.375 11.535156 C 8.375 13.140625 9.542969 14.691406 9.707031 14.910156 C 9.871094 15.128906 12.007812 18.425781 15.28125 19.839844 C 16.0625 20.175781 16.667969 20.375 17.144531 20.527344 C 17.925781 20.777344 18.636719 20.742188 19.199219 20.65625 C 19.824219 20.5625 21.128906 19.867188 21.402344 19.105469 C 21.671875 18.339844 21.671875 17.6875 21.589844 17.550781 C 21.507812 17.414062 21.292969 17.335938 20.964844 17.167969 Z M 20.964844 17.171875 " fill-opacity="1" fill-rule="evenodd"/></g></svg>