<svg xmlns="http://www.w3.org/2000/svg" xmlns:xlink="http://www.w3.org/1999/xlink" width="45" zoomAndPan="magnify" viewBox="0 0 33.75 33.749998" height="45" preserveAspectRatio="xMidYMid meet" version="1.0"><defs><clipPath id="de73f3d318"><path d="M 0.734375 4 L 24 4 L 24 32.222656 L 0.734375 32.222656 Z M 0.734375 4 " clip-rule="nonzero"/></clipPath><clipPath id="289602f8e5"><path d="M 6 0.953125 L 18 0.953125 L 18 7 L 6 7 Z M 6 0.953125 " clip-rule="nonzero"/></clipPath><clipPath id="4eac4851d3"><path d="M 26 24 L 32.746094 24 L 32.746094 32 L 26 32 Z M 26 24 " clip-rule="nonzero"/></clipPath></defs><g clip-path="url(#de73f3d318)"><path fill="#042c62" d="M 21.425781 32.539062 L 2.457031 32.539062 C 1.507812 32.539062 0.734375 31.761719 0.734375 30.816406 L 0.734375 5.730469 C 0.734375 4.78125 1.507812 4.003906 2.457031 4.003906 L 6.976562 4.003906 C 7.210938 4.003906 7.40625 4.195312 7.40625 4.429688 L 7.40625 6.136719 L 16.488281 6.136719 L 16.488281 4.429688 C 16.488281 4.195312 16.679688 4.003906 16.914062 4.003906 L 21.433594 4.003906 C 22.382812 4.003906 23.160156 4.78125 23.160156 5.730469 L 23.160156 14.9375 C 23.160156 15.058594 23.109375 15.175781 23.015625 15.261719 C 22.925781 15.339844 22.804688 15.382812 22.679688 15.367188 C 22.511719 15.34375 22.332031 15.339844 22.152344 15.339844 C 19.503906 15.339844 17.34375 17.5 17.34375 20.144531 C 17.34375 22.792969 19.503906 24.949219 22.152344 24.949219 C 22.332031 24.949219 22.511719 24.941406 22.679688 24.917969 C 22.804688 24.90625 22.925781 24.941406 23.015625 25.027344 C 23.109375 25.105469 23.160156 25.226562 23.160156 25.347656 L 23.160156 30.816406 C 23.152344 31.769531 22.382812 32.539062 21.425781 32.539062 Z M 2.457031 4.859375 C 1.980469 4.859375 1.589844 5.25 1.589844 5.730469 L 1.589844 30.816406 C 1.589844 31.292969 1.980469 31.683594 2.457031 31.683594 L 21.433594 31.683594 C 21.910156 31.683594 22.304688 31.292969 22.304688 30.816406 L 22.304688 25.808594 C 22.253906 25.808594 22.203125 25.808594 22.152344 25.808594 C 19.03125 25.808594 16.488281 23.273438 16.488281 20.148438 C 16.488281 17.027344 19.023438 14.488281 22.152344 14.488281 C 22.203125 14.488281 22.253906 14.488281 22.304688 14.488281 L 22.304688 5.730469 C 22.304688 5.25 21.910156 4.859375 21.433594 4.859375 L 17.34375 4.859375 L 17.34375 6.5625 C 17.34375 6.796875 17.148438 6.992188 16.914062 6.992188 L 6.976562 6.992188 C 6.742188 6.992188 6.550781 6.796875 6.550781 6.5625 L 6.550781 4.859375 Z M 2.457031 4.859375 " fill-opacity="1" fill-rule="nonzero"/></g><g clip-path="url(#289602f8e5)"><path fill="#042c62" d="M 16.914062 6.992188 L 6.976562 6.992188 C 6.742188 6.992188 6.550781 6.796875 6.550781 6.5625 L 6.550781 2.992188 C 6.550781 2.757812 6.742188 2.5625 6.976562 2.5625 L 9.742188 2.5625 C 10.042969 1.628906 10.933594 0.960938 11.945312 0.960938 C 12.957031 0.960938 13.84375 1.628906 14.148438 2.5625 L 16.914062 2.5625 C 17.148438 2.5625 17.34375 2.757812 17.34375 2.992188 L 17.34375 6.570312 C 17.34375 6.804688 17.148438 6.992188 16.914062 6.992188 Z M 7.40625 6.136719 L 16.488281 6.136719 L 16.488281 3.417969 L 13.804688 3.417969 C 13.59375 3.417969 13.414062 3.261719 13.386719 3.054688 C 13.277344 2.351562 12.664062 1.816406 11.945312 1.816406 C 11.234375 1.816406 10.613281 2.351562 10.503906 3.054688 C 10.476562 3.261719 10.292969 3.417969 10.085938 3.417969 L 7.40625 3.417969 Z M 7.40625 6.136719 " fill-opacity="1" fill-rule="nonzero"/></g><path fill="#042c62" d="M 8.808594 15.101562 L 3.976562 15.101562 C 3.742188 15.101562 3.546875 14.910156 3.546875 14.675781 L 3.546875 9.84375 C 3.546875 9.605469 3.742188 9.414062 3.976562 9.414062 L 8.808594 9.414062 C 9.042969 9.414062 9.238281 9.605469 9.238281 9.84375 L 9.238281 14.675781 C 9.238281 14.910156 9.042969 15.101562 8.808594 15.101562 Z M 4.402344 14.246094 L 8.382812 14.246094 L 8.382812 10.269531 L 4.402344 10.269531 Z M 4.402344 14.246094 " fill-opacity="1" fill-rule="nonzero"/><path fill="#042c62" d="M 7.0625 13.742188 C 6.964844 13.742188 6.871094 13.707031 6.785156 13.640625 L 5.34375 12.429688 C 5.167969 12.28125 5.136719 12.007812 5.292969 11.824219 C 5.445312 11.644531 5.714844 11.617188 5.902344 11.773438 L 7.027344 12.722656 L 10.140625 9.363281 C 10.304688 9.195312 10.578125 9.179688 10.75 9.34375 C 10.917969 9.507812 10.933594 9.777344 10.769531 9.949219 L 7.375 13.597656 C 7.289062 13.691406 7.175781 13.742188 7.0625 13.742188 Z M 7.0625 13.742188 " fill-opacity="1" fill-rule="nonzero"/><path fill="#042c62" d="M 19.609375 11.296875 L 12.152344 11.296875 C 11.917969 11.296875 11.726562 11.105469 11.726562 10.867188 C 11.726562 10.632812 11.917969 10.441406 12.152344 10.441406 L 19.617188 10.441406 C 19.851562 10.441406 20.042969 10.632812 20.042969 10.867188 C 20.042969 11.105469 19.851562 11.296875 19.609375 11.296875 Z M 19.609375 11.296875 " fill-opacity="1" fill-rule="nonzero"/><path fill="#042c62" d="M 17.632812 14.097656 L 12.046875 14.097656 C 11.808594 14.097656 11.617188 13.90625 11.617188 13.671875 C 11.617188 13.433594 11.808594 13.242188 12.046875 13.242188 L 17.628906 13.242188 C 17.863281 13.242188 18.054688 13.433594 18.054688 13.671875 C 18.054688 13.90625 17.871094 14.097656 17.632812 14.097656 Z M 17.632812 14.097656 " fill-opacity="1" fill-rule="nonzero"/><path fill="#042c62" d="M 8.808594 22.140625 L 3.976562 22.140625 C 3.742188 22.140625 3.546875 21.945312 3.546875 21.710938 L 3.546875 16.878906 C 3.546875 16.644531 3.742188 16.449219 3.976562 16.449219 L 8.808594 16.449219 C 9.042969 16.449219 9.238281 16.644531 9.238281 16.878906 L 9.238281 21.710938 C 9.238281 21.945312 9.042969 22.140625 8.808594 22.140625 Z M 4.402344 21.285156 L 8.382812 21.285156 L 8.382812 17.304688 L 4.402344 17.304688 Z M 4.402344 21.285156 " fill-opacity="1" fill-rule="nonzero"/><path fill="#042c62" d="M 7.0625 20.777344 C 6.964844 20.777344 6.871094 20.742188 6.785156 20.675781 L 5.34375 19.464844 C 5.167969 19.316406 5.136719 19.046875 5.292969 18.859375 C 5.453125 18.675781 5.714844 18.652344 5.902344 18.808594 L 7.027344 19.757812 L 10.140625 16.402344 C 10.304688 16.230469 10.578125 16.214844 10.75 16.378906 C 10.917969 16.542969 10.933594 16.8125 10.769531 16.984375 L 7.375 20.636719 C 7.289062 20.726562 7.175781 20.777344 7.0625 20.777344 Z M 7.0625 20.777344 " fill-opacity="1" fill-rule="nonzero"/><path fill="#042c62" d="M 14.996094 18.332031 L 12.089844 18.332031 C 11.851562 18.332031 11.660156 18.140625 11.660156 17.90625 C 11.660156 17.667969 11.851562 17.476562 12.089844 17.476562 L 14.996094 17.476562 C 15.230469 17.476562 15.425781 17.667969 15.425781 17.90625 C 15.425781 18.140625 15.230469 18.332031 14.996094 18.332031 Z M 14.996094 18.332031 " fill-opacity="1" fill-rule="nonzero"/><path fill="#042c62" d="M 14.226562 21.132812 L 12.046875 21.132812 C 11.808594 21.132812 11.617188 20.941406 11.617188 20.707031 C 11.617188 20.472656 11.808594 20.277344 12.046875 20.277344 L 14.21875 20.277344 C 14.457031 20.277344 14.648438 20.472656 14.648438 20.707031 C 14.648438 20.941406 14.460938 21.132812 14.226562 21.132812 Z M 14.226562 21.132812 " fill-opacity="1" fill-rule="nonzero"/><path fill="#042c62" d="M 8.808594 29.175781 L 3.976562 29.175781 C 3.742188 29.175781 3.546875 28.984375 3.546875 28.746094 L 3.546875 23.914062 C 3.546875 23.679688 3.742188 23.484375 3.976562 23.484375 L 8.808594 23.484375 C 9.042969 23.484375 9.238281 23.679688 9.238281 23.914062 L 9.238281 28.746094 C 9.238281 28.984375 9.042969 29.175781 8.808594 29.175781 Z M 4.402344 28.320312 L 8.382812 28.320312 L 8.382812 24.339844 L 4.402344 24.339844 Z M 4.402344 28.320312 " fill-opacity="1" fill-rule="nonzero"/><path fill="#042c62" d="M 7.0625 27.8125 C 6.964844 27.8125 6.871094 27.777344 6.785156 27.714844 L 5.34375 26.5 C 5.167969 26.351562 5.136719 26.082031 5.292969 25.894531 C 5.453125 25.710938 5.714844 25.6875 5.902344 25.847656 L 7.027344 26.792969 L 10.140625 23.4375 C 10.304688 23.265625 10.578125 23.25 10.75 23.414062 C 10.917969 23.578125 10.933594 23.851562 10.769531 24.019531 L 7.375 27.671875 C 7.289062 27.761719 7.175781 27.8125 7.0625 27.8125 Z M 7.0625 27.8125 " fill-opacity="1" fill-rule="nonzero"/><path fill="#042c62" d="M 14.996094 25.367188 L 12.089844 25.367188 C 11.851562 25.367188 11.660156 25.175781 11.660156 24.941406 C 11.660156 24.707031 11.851562 24.511719 12.089844 24.511719 L 14.996094 24.511719 C 15.230469 24.511719 15.425781 24.707031 15.425781 24.941406 C 15.425781 25.175781 15.230469 25.367188 14.996094 25.367188 Z M 14.996094 25.367188 " fill-opacity="1" fill-rule="nonzero"/><path fill="#042c62" d="M 14.226562 28.167969 L 12.046875 28.167969 C 11.808594 28.167969 11.617188 27.976562 11.617188 27.742188 C 11.617188 27.507812 11.808594 27.3125 12.046875 27.3125 L 14.21875 27.3125 C 14.457031 27.3125 14.648438 27.507812 14.648438 27.742188 C 14.648438 27.976562 14.460938 28.167969 14.226562 28.167969 Z M 14.226562 28.167969 " fill-opacity="1" fill-rule="nonzero"/><path fill="#042c62" d="M 22.148438 25.808594 C 19.023438 25.808594 16.480469 23.273438 16.480469 20.148438 C 16.480469 17.027344 19.015625 14.488281 22.148438 14.488281 C 22.359375 14.488281 22.566406 14.503906 22.773438 14.527344 C 25.648438 14.839844 27.808594 17.261719 27.808594 20.15625 C 27.808594 23.050781 25.640625 25.46875 22.765625 25.789062 C 22.566406 25.796875 22.359375 25.808594 22.148438 25.808594 Z M 22.148438 15.339844 C 19.496094 15.339844 17.335938 17.5 17.335938 20.144531 C 17.335938 22.792969 19.496094 24.949219 22.148438 24.949219 C 22.324219 24.949219 22.503906 24.941406 22.675781 24.917969 C 25.113281 24.648438 26.953125 22.59375 26.953125 20.144531 C 26.953125 17.683594 25.113281 15.628906 22.675781 15.367188 C 22.503906 15.351562 22.324219 15.339844 22.148438 15.339844 Z M 22.148438 15.339844 " fill-opacity="1" fill-rule="nonzero"/><path fill="#042c62" d="M 27 25.839844 C 26.894531 25.839844 26.78125 25.796875 26.703125 25.710938 L 25.339844 24.347656 C 25.175781 24.183594 25.175781 23.914062 25.339844 23.742188 C 25.503906 23.578125 25.773438 23.578125 25.945312 23.742188 L 27.308594 25.105469 C 27.472656 25.269531 27.472656 25.539062 27.308594 25.710938 C 27.222656 25.796875 27.117188 25.839844 27 25.839844 Z M 27 25.839844 " fill-opacity="1" fill-rule="nonzero"/><g clip-path="url(#4eac4851d3)"><path fill="#042c62" d="M 30.972656 31.164062 C 30.496094 31.164062 30.039062 30.980469 29.695312 30.636719 L 26.753906 27.691406 C 26.410156 27.351562 26.222656 26.902344 26.222656 26.417969 C 26.222656 25.929688 26.410156 25.480469 26.753906 25.140625 C 27.09375 24.796875 27.542969 24.613281 28.027344 24.613281 C 28.511719 24.613281 28.960938 24.796875 29.304688 25.140625 L 32.25 28.085938 C 32.945312 28.78125 32.945312 29.929688 32.25 30.628906 C 31.90625 30.972656 31.449219 31.164062 30.972656 31.164062 Z M 28.027344 25.476562 C 27.785156 25.476562 27.542969 25.566406 27.359375 25.753906 C 26.988281 26.125 26.988281 26.722656 27.359375 27.09375 L 30.300781 30.039062 C 30.480469 30.214844 30.714844 30.316406 30.972656 30.316406 C 31.230469 30.316406 31.464844 30.214844 31.640625 30.039062 C 32.011719 29.667969 32.011719 29.066406 31.640625 28.699219 L 28.699219 25.753906 C 28.511719 25.566406 28.269531 25.476562 28.027344 25.476562 Z M 28.027344 25.476562 " fill-opacity="1" fill-rule="nonzero"/></g><path fill="#042c62" d="M 21.953125 22.097656 C 21.847656 22.097656 21.742188 22.054688 21.664062 21.980469 L 19.929688 20.363281 C 19.757812 20.199219 19.746094 19.929688 19.910156 19.757812 C 20.074219 19.585938 20.34375 19.574219 20.515625 19.738281 L 21.898438 21.027344 L 24.105469 18.132812 C 24.25 17.949219 24.519531 17.910156 24.707031 18.054688 C 24.890625 18.195312 24.925781 18.46875 24.785156 18.652344 L 22.28125 21.917969 C 22.210938 22.011719 22.097656 22.074219 21.976562 22.082031 C 21.976562 22.097656 21.96875 22.097656 21.953125 22.097656 Z M 21.953125 22.097656 " fill-opacity="1" fill-rule="nonzero"/></svg>