<svg xmlns="http://www.w3.org/2000/svg" xmlns:xlink="http://www.w3.org/1999/xlink" width="45" zoomAndPan="magnify" viewBox="0 0 33.75 33.749998" height="45" preserveAspectRatio="xMidYMid meet" version="1.0"><defs><clipPath id="c7f71b2737"><path d="M 1 0.410156 L 31 0.410156 L 31 33.164062 L 1 33.164062 Z M 1 0.410156 " clip-rule="nonzero"/></clipPath></defs><g clip-path="url(#c7f71b2737)"><path fill="#042c62" d="M 27.257812 19.726562 L 30.183594 16.796875 C 30.636719 16.34375 30.886719 15.742188 30.886719 15.101562 C 30.886719 14.460938 30.636719 13.859375 30.183594 13.410156 L 27.738281 10.960938 L 26.160156 9.382812 C 25.699219 8.925781 25.089844 8.671875 24.4375 8.671875 C 23.789062 8.671875 23.175781 8.925781 22.71875 9.382812 C 22.261719 9.839844 22.007812 10.449219 22.007812 11.101562 C 22.007812 11.3125 22.035156 11.519531 22.085938 11.71875 C 22.085938 12.386719 22.082031 13.011719 22.078125 13.597656 C 22.074219 14.710938 22.070312 15.6875 22.082031 16.585938 L 16.460938 16.585938 C 15.140625 16.585938 14.066406 17.660156 14.066406 18.984375 L 14.066406 25.277344 C 14.066406 25.929688 14.304688 26.523438 14.703125 26.984375 L 13.878906 26.984375 C 12.199219 26.984375 10.832031 28.351562 10.832031 30.035156 L 10.832031 32.636719 C 10.832031 32.882812 11.03125 33.082031 11.277344 33.082031 L 22.082031 33.082031 C 22.328125 33.082031 22.53125 32.882812 22.53125 32.636719 L 22.53125 30.035156 C 22.53125 28.351562 21.164062 26.984375 19.480469 26.984375 L 18.660156 26.984375 C 19.054688 26.523438 19.296875 25.929688 19.296875 25.277344 L 19.296875 21.816406 L 22.585938 21.816406 C 23.09375 24.199219 24.09375 26.945312 26.101562 31.613281 C 26.355469 32.207031 26.832031 32.667969 27.433594 32.910156 C 27.730469 33.027344 28.035156 33.085938 28.339844 33.085938 C 28.664062 33.085938 28.988281 33.019531 29.296875 32.886719 C 29.890625 32.628906 30.351562 32.15625 30.59375 31.550781 C 30.832031 30.945312 30.824219 30.285156 30.570312 29.691406 C 28.617188 25.15625 27.660156 22.597656 27.257812 19.726562 Z M 14.960938 21.816406 L 18.402344 21.816406 L 18.402344 22.972656 L 14.960938 22.972656 Z M 14.960938 23.867188 L 18.402344 23.867188 L 18.402344 25.277344 C 18.402344 26.148438 17.75 26.867188 16.914062 26.984375 L 16.449219 26.984375 C 15.609375 26.867188 14.960938 26.148438 14.960938 25.277344 Z M 19.480469 27.878906 C 20.667969 27.878906 21.636719 28.84375 21.636719 30.035156 L 21.636719 32.191406 L 11.722656 32.191406 L 11.722656 30.035156 C 11.722656 28.84375 12.691406 27.878906 13.878906 27.878906 L 16.394531 27.878906 C 16.488281 27.886719 16.585938 27.894531 16.683594 27.894531 C 16.777344 27.894531 16.875 27.886719 16.96875 27.878906 Z M 18.847656 20.921875 C 18.847656 20.921875 18.84375 20.921875 18.84375 20.921875 C 18.84375 20.921875 18.839844 20.921875 18.839844 20.921875 L 14.960938 20.921875 L 14.960938 18.984375 C 14.960938 18.15625 15.632812 17.480469 16.460938 17.480469 L 22.101562 17.480469 C 22.113281 17.8125 22.125 18.136719 22.144531 18.453125 C 22.015625 18.980469 22.0625 19.539062 22.289062 20.039062 C 22.324219 20.332031 22.367188 20.628906 22.417969 20.921875 Z M 22.972656 13.605469 C 22.972656 13.433594 22.976562 13.257812 22.976562 13.078125 L 25 15.101562 L 22.984375 17.117188 C 22.960938 16.082031 22.964844 14.941406 22.972656 13.605469 Z M 23.414062 17.949219 L 25.453125 15.910156 L 25.457031 15.910156 L 25.949219 15.417969 C 26.03125 15.335938 26.078125 15.222656 26.078125 15.105469 C 26.078125 14.984375 26.03125 14.871094 25.949219 14.789062 L 23.351562 12.191406 C 23.0625 11.898438 22.902344 11.511719 22.902344 11.101562 C 22.902344 10.6875 23.0625 10.300781 23.351562 10.015625 C 23.640625 9.726562 24.027344 9.566406 24.4375 9.566406 C 24.851562 9.566406 25.238281 9.726562 25.527344 10.015625 L 29.554688 14.042969 C 29.835938 14.324219 29.992188 14.699219 29.992188 15.101562 C 29.992188 15.503906 29.835938 15.882812 29.554688 16.164062 L 25.59375 20.125 C 24.992188 20.726562 24.015625 20.726562 23.414062 20.125 C 22.816406 19.527344 22.816406 18.550781 23.414062 17.949219 Z M 29.761719 31.222656 C 29.609375 31.605469 29.320312 31.902344 28.945312 32.066406 C 28.566406 32.226562 28.148438 32.230469 27.765625 32.078125 C 27.382812 31.925781 27.082031 31.636719 26.921875 31.261719 C 24.8125 26.355469 23.832031 23.617188 23.371094 21.191406 C 23.726562 21.375 24.113281 21.46875 24.503906 21.46875 C 25.128906 21.46875 25.75 21.230469 26.226562 20.757812 L 26.476562 20.507812 C 26.941406 23.222656 27.914062 25.777344 29.75 30.042969 C 29.910156 30.417969 29.914062 30.835938 29.761719 31.222656 Z M 22.996094 8.238281 C 25.15625 8.238281 26.910156 6.480469 26.910156 4.324219 C 26.910156 2.164062 25.15625 0.410156 22.996094 0.410156 C 20.839844 0.410156 19.082031 2.164062 19.082031 4.324219 C 19.082031 6.480469 20.839844 8.238281 22.996094 8.238281 Z M 22.996094 1.300781 C 24.664062 1.300781 26.019531 2.65625 26.019531 4.324219 C 26.019531 5.988281 24.664062 7.34375 22.996094 7.34375 C 21.332031 7.34375 19.976562 5.988281 19.976562 4.324219 C 19.976562 2.65625 21.332031 1.300781 22.996094 1.300781 Z M 8.542969 6.417969 L 8.542969 7.800781 L 7.160156 7.800781 C 6.910156 7.800781 6.710938 8.003906 6.710938 8.25 L 6.710938 10.429688 C 6.710938 10.675781 6.910156 10.875 7.160156 10.875 L 8.542969 10.875 L 8.542969 12.261719 C 8.542969 12.507812 8.746094 12.707031 8.992188 12.707031 L 11.167969 12.707031 C 11.414062 12.707031 11.617188 12.507812 11.617188 12.261719 L 11.617188 10.875 L 13.003906 10.875 C 13.25 10.875 13.449219 10.675781 13.449219 10.429688 L 13.449219 8.25 C 13.449219 8.003906 13.25 7.800781 13.003906 7.800781 L 11.617188 7.800781 L 11.617188 6.417969 C 11.617188 6.167969 11.414062 5.96875 11.167969 5.96875 L 8.992188 5.96875 C 8.746094 5.96875 8.542969 6.167969 8.542969 6.417969 Z M 9.4375 8.25 L 9.4375 6.863281 L 10.722656 6.863281 L 10.722656 8.25 C 10.722656 8.496094 10.921875 8.695312 11.167969 8.695312 L 12.554688 8.695312 L 12.554688 9.980469 L 11.167969 9.980469 C 10.921875 9.980469 10.722656 10.183594 10.722656 10.429688 L 10.722656 11.816406 L 9.4375 11.816406 L 9.4375 10.429688 C 9.4375 10.183594 9.238281 9.980469 8.992188 9.980469 L 7.605469 9.980469 L 7.605469 8.695312 L 8.992188 8.695312 C 9.238281 8.695312 9.4375 8.496094 9.4375 8.25 Z M 4.382812 9.339844 C 4.382812 12.480469 6.9375 15.035156 10.078125 15.035156 C 13.222656 15.035156 15.777344 12.480469 15.777344 9.339844 C 15.777344 6.195312 13.222656 3.640625 10.078125 3.640625 C 6.9375 3.640625 4.382812 6.195312 4.382812 9.339844 Z M 14.886719 9.339844 C 14.886719 11.988281 12.730469 14.144531 10.078125 14.144531 C 7.429688 14.144531 5.273438 11.988281 5.273438 9.339844 C 5.273438 6.6875 7.429688 4.535156 10.078125 4.535156 C 12.730469 4.535156 14.886719 6.691406 14.886719 9.339844 Z M 11.664062 18.589844 C 11.292969 18.636719 10.925781 18.660156 10.558594 18.660156 C 6.652344 18.660156 3.070312 16.050781 2.015625 12.105469 C 0.753906 7.394531 3.558594 2.539062 8.265625 1.277344 C 11.351562 0.453125 14.652344 1.359375 16.886719 3.644531 C 17.058594 3.824219 17.054688 4.105469 16.878906 4.277344 C 16.703125 4.449219 16.421875 4.445312 16.246094 4.269531 C 14.238281 2.214844 11.269531 1.398438 8.496094 2.140625 C 4.265625 3.273438 1.742188 7.640625 2.878906 11.875 C 3.925781 15.789062 7.742188 18.238281 11.65625 17.6875 L 10.550781 16.867188 C 10.351562 16.71875 10.308594 16.4375 10.457031 16.242188 C 10.605469 16.042969 10.882812 16 11.082031 16.148438 L 12.992188 17.566406 C 13.089844 17.636719 13.152344 17.742188 13.167969 17.863281 C 13.1875 17.980469 13.15625 18.101562 13.082031 18.195312 L 11.660156 20.078125 C 11.574219 20.191406 11.441406 20.253906 11.304688 20.253906 C 11.210938 20.253906 11.117188 20.222656 11.035156 20.164062 C 10.839844 20.015625 10.800781 19.734375 10.949219 19.539062 Z M 11.664062 18.589844 " fill-opacity="1" fill-rule="nonzero"/></g></svg>