<svg xmlns="http://www.w3.org/2000/svg" xmlns:xlink="http://www.w3.org/1999/xlink" width="45" zoomAndPan="magnify" viewBox="0 0 33.75 33.749998" height="45" preserveAspectRatio="xMidYMid meet" version="1.0"><defs><clipPath id="d63c520488"><path d="M 0 2.050781 L 33.5 2.050781 L 33.5 31.085938 L 0 31.085938 Z M 0 2.050781 " clip-rule="nonzero"/></clipPath></defs><g clip-path="url(#d63c520488)"><path fill="#042c62" d="M 32.589844 14.9375 C 32.324219 14.363281 32.164062 13.8125 32.148438 13.175781 C 32.121094 12.207031 31.9375 11.246094 31.117188 10.597656 C 30.761719 10.316406 30.472656 10.023438 30.320312 9.597656 C 30.230469 9.355469 30.097656 9.125 29.972656 8.902344 C 29.414062 7.929688 28.835938 6.914062 27.726562 6.570312 C 26.882812 6.3125 26.460938 5.761719 26.070312 5.085938 C 26.066406 5.070312 26.058594 5.058594 26.042969 5.042969 C 24.730469 3.171875 22.667969 2.246094 20.386719 3.171875 C 20.230469 3.234375 19.972656 3.171875 19.820312 3.074219 C 18.40625 2.175781 16.945312 2.113281 15.46875 2.878906 C 15.140625 3.046875 14.886719 3.035156 14.558594 2.894531 C 12.90625 2.21875 11.253906 2.058594 9.664062 3.097656 C 9.550781 3.171875 9.398438 3.207031 9.257812 3.214844 C 8.804688 3.234375 8.351562 3.207031 7.898438 3.242188 C 6.703125 3.332031 5.722656 3.835938 4.945312 4.757812 C 4.714844 5.027344 4.429688 5.28125 4.125 5.449219 C 3.160156 5.972656 2.394531 6.667969 2.050781 7.734375 C 1.703125 8.84375 1.480469 9.96875 0.960938 11.050781 C 0 13.085938 1.09375 15.703125 2.601562 17.183594 C 3.863281 18.417969 5.457031 18.890625 7.164062 19.011719 C 7.589844 19.039062 7.828125 19.128906 7.90625 19.546875 C 7.96875 20.160156 8.070312 20.753906 8.53125 21.222656 C 8.875 21.835938 9.355469 22.296875 10.019531 22.5625 C 10.410156 22.6875 10.792969 22.8125 11.183594 22.9375 C 11.21875 22.945312 11.253906 22.945312 11.296875 22.953125 C 11.484375 22.9375 11.679688 22.929688 11.867188 22.925781 C 11.679688 22.9375 11.484375 22.9375 11.296875 22.953125 C 11.53125 22.980469 11.777344 23.050781 12.015625 23.027344 C 12.550781 22.988281 13.019531 23.121094 13.492188 23.378906 C 14.335938 23.84375 15.25 23.914062 16.1875 23.683594 C 16.5625 23.59375 16.925781 23.46875 17.316406 23.351562 C 17.386719 23.496094 17.449219 23.621094 17.511719 23.746094 C 17.679688 24.835938 18.382812 25.5 19.332031 25.910156 C 19.722656 26.085938 20.023438 26.292969 20.203125 26.675781 C 20.492188 27.3125 20.777344 27.949219 21.0625 28.582031 L 21.046875 28.589844 C 21.046875 28.589844 21.070312 28.597656 21.070312 28.597656 C 21.089844 28.652344 21.117188 28.707031 21.140625 28.761719 C 21.339844 29.542969 21.523438 30.332031 21.761719 31.101562 C 21.800781 31.246094 22.054688 31.332031 22.207031 31.4375 C 22.304688 31.273438 22.507812 31.078125 22.472656 30.953125 C 22.234375 30.035156 21.941406 29.125 21.667969 28.21875 C 21.40625 27.648438 21.144531 27.066406 20.882812 26.496094 C 20.679688 26.085938 20.621094 25.566406 20.085938 25.40625 C 19.207031 25.148438 18.566406 24.621094 18.214844 23.753906 C 18.195312 23.691406 18.175781 23.636719 18.144531 23.574219 C 18.132812 23.503906 18.125 23.433594 18.113281 23.363281 C 18.117188 23.230469 18.125 23.105469 18.125 22.972656 C 19.285156 22.476562 20.457031 22.085938 21.753906 22.308594 C 21.878906 22.332031 22.054688 22.109375 22.207031 21.996094 C 22.101562 21.855469 22.019531 21.675781 21.878906 21.597656 C 21.71875 21.515625 21.503906 21.523438 21.308594 21.507812 C 19.953125 21.417969 18.71875 21.820312 17.539062 22.4375 C 17.359375 22.5 17.167969 22.546875 16.988281 22.625 C 15.863281 23.105469 14.742188 23.238281 13.617188 22.617188 C 13.542969 22.574219 13.429688 22.582031 13.332031 22.566406 C 13.144531 22.402344 12.957031 22.234375 12.773438 22.066406 C 12.601562 21.914062 12.425781 21.753906 12.25 21.597656 C 12.25 21.597656 12.242188 21.589844 12.242188 21.589844 C 12.152344 21.488281 12.078125 21.328125 11.964844 21.285156 C 11.796875 21.230469 11.601562 21.257812 11.414062 21.257812 C 11.433594 21.429688 11.457031 21.613281 11.46875 21.785156 C 11.503906 21.835938 11.539062 21.882812 11.574219 21.925781 C 11.636719 22.015625 11.699219 22.109375 11.761719 22.199219 C 11.734375 22.246094 11.707031 22.296875 11.679688 22.339844 C 11.058594 22.113281 10.4375 21.882812 9.816406 21.660156 C 9.71875 21.570312 9.613281 21.480469 9.515625 21.390625 C 9.488281 21.355469 9.453125 21.320312 9.425781 21.285156 C 9.398438 21.257812 9.363281 21.222656 9.335938 21.195312 C 9.300781 21.144531 9.265625 21.101562 9.238281 21.054688 C 8.839844 20.308594 8.476562 19.546875 8.582031 18.660156 C 8.625 18.570312 8.671875 18.488281 8.691406 18.394531 C 8.980469 17.335938 9.683594 16.660156 10.6875 16.28125 C 12.230469 15.703125 13.695312 16.046875 15.105469 16.75 C 15.382812 16.890625 15.640625 17 15.800781 16.660156 C 15.957031 16.34375 15.71875 16.191406 15.460938 16.074219 C 15.0625 15.882812 14.664062 15.6875 14.15625 15.445312 C 15.472656 15.214844 16.652344 15.230469 17.816406 15.558594 C 17.929688 15.585938 18.046875 15.675781 18.105469 15.773438 C 18.363281 16.234375 18.59375 16.246094 18.898438 15.792969 C 19.289062 15.222656 19.828125 14.894531 20.496094 14.761719 C 20.734375 14.710938 21 14.773438 21.222656 14.699219 C 21.40625 14.636719 21.640625 14.46875 21.675781 14.308594 C 21.730469 14.023438 21.480469 13.945312 21.222656 13.953125 C 21.035156 13.953125 20.847656 13.9375 20.601562 13.925781 C 20.664062 13.652344 20.679688 13.4375 20.753906 13.253906 C 20.984375 12.730469 21.265625 12.234375 21.472656 11.707031 C 21.816406 10.832031 22.109375 9.941406 22.449219 9.070312 C 22.570312 8.761719 22.738281 8.460938 22.945312 8.210938 C 23.128906 7.988281 23.425781 7.867188 23.617188 7.652344 C 23.75 7.5 23.777344 7.253906 23.847656 7.050781 C 23.609375 7.050781 23.359375 6.996094 23.148438 7.058594 C 22.925781 7.128906 22.738281 7.324219 22.507812 7.476562 C 22.359375 6.914062 22.242188 6.429688 22.109375 5.949219 C 22.03125 5.679688 21.941406 5.371094 21.566406 5.484375 C 21.195312 5.59375 21.277344 5.894531 21.371094 6.171875 C 21.957031 7.910156 21.773438 9.5625 20.894531 11.160156 C 20.414062 12.039062 19.863281 12.898438 19.777344 13.953125 C 19.773438 14.050781 19.652344 14.160156 19.554688 14.230469 C 19.296875 14.425781 19.03125 14.613281 18.746094 14.769531 C 18.605469 14.84375 18.410156 14.902344 18.273438 14.859375 C 16.429688 14.34375 14.621094 14.273438 12.84375 15.117188 C 12.53125 15.269531 12.195312 15.222656 12.195312 14.769531 C 12.195312 14.078125 12.230469 13.378906 12.285156 12.6875 C 12.308594 12.410156 12.363281 12.136719 12.027344 12.0625 C 11.679688 11.984375 11.582031 12.257812 11.527344 12.523438 C 11.441406 12.898438 11.378906 13.273438 11.300781 13.679688 C 10.710938 13.679688 10.144531 13.667969 9.578125 13.6875 C 9.140625 13.699219 8.699219 13.730469 8.265625 13.8125 C 8.128906 13.839844 8.023438 14.0625 7.90625 14.1875 C 8.050781 14.308594 8.175781 14.46875 8.335938 14.539062 C 8.476562 14.59375 8.65625 14.53125 8.820312 14.53125 C 9.515625 14.503906 10.214844 14.476562 10.910156 14.460938 C 11.230469 14.453125 11.414062 14.628906 11.449219 14.964844 C 11.492188 15.332031 11.203125 15.285156 11.007812 15.339844 C 9.765625 15.660156 8.726562 16.289062 8.21875 17.496094 C 7.945312 18.136719 7.625 18.285156 6.96875 18.214844 C 4.660156 17.976562 2.875 17 1.898438 14.808594 C 1.277344 13.421875 1.101562 12.027344 1.960938 10.660156 C 2.726562 9.429688 4.136719 9.144531 5.191406 9.96875 C 5.351562 10.09375 5.574219 10.121094 5.769531 10.199219 C 5.847656 10.003906 5.964844 9.808594 5.984375 9.605469 C 6.054688 8.9375 6.222656 8.320312 6.78125 7.890625 C 7.578125 7.277344 8.6875 7.378906 9.578125 8.078125 C 9.753906 8.21875 10.066406 8.335938 10.25 8.273438 C 10.570312 8.15625 10.410156 7.847656 10.339844 7.597656 C 9.96875 6.3125 10.9375 5.183594 12.25 5.417969 C 12.738281 5.503906 13.191406 5.761719 13.675781 5.886719 C 13.835938 5.929688 14.035156 5.808594 14.226562 5.761719 C 14.167969 5.582031 14.164062 5.351562 14.035156 5.230469 C 13.871094 5.070312 13.617188 4.988281 13.394531 4.894531 C 12.125 4.351562 10.839844 4.535156 10.082031 5.460938 C 9.746094 5.867188 9.585938 6.410156 9.308594 6.960938 C 8.554688 6.683594 7.695312 6.558594 6.851562 6.933594 C 5.964844 7.324219 5.496094 8.0625 5.246094 9.011719 C 4.359375 8.636719 3.480469 8.582031 2.511719 9.070312 C 2.558594 8.734375 2.574219 8.523438 2.628906 8.335938 C 2.949219 7.210938 3.683594 6.472656 4.742188 6 C 5.015625 5.878906 5.28125 5.644531 5.449219 5.390625 C 6.089844 4.402344 7.546875 3.765625 8.539062 4.011719 C 8.671875 4.28125 8.761719 4.484375 8.851562 4.679688 C 9.046875 4.582031 9.257812 4.5 9.445312 4.375 C 9.578125 4.28125 9.65625 4.109375 9.796875 4.03125 C 10.3125 3.738281 10.808594 3.375 11.363281 3.214844 C 12.46875 2.90625 13.527344 3.234375 14.523438 3.710938 C 14.929688 3.90625 15.277344 3.953125 15.65625 3.65625 C 15.859375 3.492188 16.109375 3.390625 16.347656 3.296875 C 17.476562 2.90625 18.503906 3.125 19.472656 3.808594 C 18.898438 4.5625 18.691406 5.371094 18.699219 6.265625 C 18.699219 7.023438 18.691406 7.796875 18.605469 8.550781 C 18.433594 10.179688 17.824219 11.601562 16.507812 12.648438 C 16.296875 12.816406 16.109375 12.976562 16.304688 13.246094 C 16.515625 13.539062 16.742188 13.414062 16.972656 13.246094 C 17.882812 12.585938 18.496094 11.699219 18.894531 10.660156 C 19.058594 10.210938 19.179688 9.753906 19.289062 9.402344 C 19.5625 9.460938 19.785156 9.507812 20.007812 9.558594 C 20.035156 9.332031 20.128906 9.097656 20.078125 8.894531 C 19.945312 8.328125 19.722656 7.777344 19.605469 7.207031 C 19.511719 6.753906 19.457031 6.265625 19.5 5.804688 C 19.6875 3.792969 21.347656 3.328125 22.945312 3.660156 C 24.425781 3.96875 25.191406 5.148438 25.9375 6.328125 C 25.652344 6.5625 25.375 6.746094 25.15625 6.984375 C 24.105469 8.125 24.222656 10.242188 24.71875 11.433594 C 24.765625 11.550781 25.058594 11.683594 25.144531 11.636719 C 25.277344 11.566406 25.410156 11.335938 25.402344 11.1875 C 25.382812 10.855469 25.25 10.527344 25.191406 10.191406 C 25.054688 9.367188 25.09375 8.566406 25.511719 7.820312 C 25.953125 7.023438 26.769531 6.835938 27.550781 7.289062 C 28.261719 7.722656 28.714844 8.34375 29.132812 9.011719 C 29.308594 9.292969 29.449219 9.597656 29.636719 9.960938 C 29.246094 10.003906 28.953125 10.015625 28.675781 10.066406 C 28.316406 10.128906 28.1875 9.980469 28.039062 9.65625 C 27.824219 9.195312 27.496094 8.777344 27.1875 8.363281 C 27.027344 8.140625 26.777344 7.988281 26.519531 8.21875 C 26.253906 8.453125 26.414062 8.679688 26.601562 8.886719 C 26.769531 9.070312 26.929688 9.25 27.070312 9.445312 C 27.425781 9.976562 27.542969 10.570312 27.53125 11.210938 C 27.53125 11.363281 27.738281 11.515625 27.851562 11.671875 C 27.992188 11.558594 28.253906 11.441406 28.25 11.34375 C 28.214844 10.804688 28.554688 10.820312 28.910156 10.820312 C 29.140625 10.820312 29.363281 10.804688 29.59375 10.820312 C 30.65625 10.867188 31.394531 11.761719 31.261719 12.878906 C 31.1875 12.835938 31.109375 12.808594 31.054688 12.757812 C 30.824219 12.558594 30.542969 12.339844 30.304688 12.660156 C 30.089844 12.953125 30.339844 13.183594 30.570312 13.394531 C 31.445312 14.203125 31.996094 15.207031 32.289062 16.351562 C 32.546875 17.371094 32.574219 18.410156 32.390625 19.449219 C 32.300781 19.652344 32.253906 19.894531 32.105469 20.042969 C 31.839844 20.320312 31.554688 20.683594 31.21875 20.761719 C 30.800781 20.851562 30.675781 20.355469 30.507812 20.035156 C 30.417969 19.609375 30.363281 19.171875 30.230469 18.757812 C 30.132812 18.460938 29.980469 18.160156 29.785156 17.914062 C 29.699219 17.808594 29.449219 17.839844 29.273438 17.808594 C 29.246094 18 29.148438 18.195312 29.191406 18.363281 C 29.289062 18.765625 29.457031 19.148438 29.59375 19.539062 C 29.679688 19.769531 29.753906 19.992188 29.839844 20.222656 C 30.105469 20.648438 30.371094 21.074219 30.632812 21.5 C 30.355469 21.816406 30.078125 22.136719 29.796875 22.449219 C 28.996094 22.8125 28.15625 22.925781 27.285156 22.894531 C 27.132812 22.890625 26.972656 23.125 26.816406 23.253906 C 26.957031 23.378906 27.082031 23.558594 27.25 23.613281 C 27.4375 23.683594 27.667969 23.644531 27.878906 23.644531 C 27.167969 24.773438 26.140625 25.457031 24.84375 25.722656 C 23.496094 25.992188 22.199219 25.40625 22.023438 23.929688 C 22.011719 23.796875 21.761719 23.683594 21.613281 23.566406 C 21.515625 23.726562 21.320312 23.902344 21.335938 24.054688 C 21.398438 24.925781 21.761719 25.707031 22.570312 26.078125 C 23.167969 26.347656 23.316406 26.753906 23.34375 27.3125 C 23.351562 27.457031 23.386719 27.597656 23.40625 27.746094 C 23.46875 28.882812 23.539062 30.027344 23.601562 31.164062 C 23.726562 31.253906 23.914062 31.441406 23.972656 31.40625 C 24.109375 31.324219 24.285156 31.140625 24.285156 31.003906 C 24.300781 30.445312 24.25 29.886719 24.222656 29.328125 C 24.195312 28.902344 24.167969 28.46875 24.140625 28.046875 C 24.082031 27.589844 24.027344 27.136719 23.972656 26.683594 C 24.027344 27.136719 24.082031 27.589844 24.140625 28.046875 C 24.125 27.90625 24.105469 27.765625 24.089844 27.632812 C 24.082031 27.5625 24.078125 27.488281 24.070312 27.417969 C 24.042969 27.171875 24.007812 26.929688 23.980469 26.683594 C 24.007812 26.636719 24.027344 26.585938 24.054688 26.53125 C 24.007812 26.523438 23.964844 26.523438 23.921875 26.523438 C 23.964844 26.523438 24.007812 26.523438 24.054688 26.53125 C 26.132812 26.523438 27.632812 25.527344 28.679688 23.78125 C 28.871094 23.671875 29.058594 23.558594 29.253906 23.453125 C 29.679688 23.222656 30.105469 23 30.523438 22.777344 C 30.746094 22.511719 30.960938 22.246094 31.1875 21.980469 C 31.347656 21.816406 31.484375 21.589844 31.679688 21.492188 C 32.28125 21.199219 32.699219 20.769531 32.882812 20.125 C 32.972656 19.882812 33.089844 19.652344 33.144531 19.402344 C 33.5 17.84375 33.257812 16.359375 32.589844 14.9375 Z M 30.640625 21.5 C 30.640625 21.613281 30.65625 21.703125 30.691406 21.78125 C 30.648438 21.710938 30.632812 21.621094 30.640625 21.5 Z M 4.445312 14.550781 C 4.394531 15.074219 4.777344 15.382812 5.199219 15.515625 C 5.726562 15.6875 6.300781 15.753906 6.859375 15.828125 C 7.128906 15.863281 7.421875 15.855469 7.4375 16.199219 C 7.449219 16.582031 7.152344 16.597656 6.851562 16.609375 C 6.035156 16.632812 5.265625 16.503906 4.554688 16.078125 C 3.65625 15.535156 3.273438 14.371094 4.128906 13.472656 C 4.171875 13.429688 4.199219 13.367188 4.191406 13.386719 C 3.832031 12.851562 3.503906 12.390625 3.210938 11.914062 C 3.078125 11.699219 3.027344 11.433594 3.328125 11.292969 C 3.613281 11.160156 3.78125 11.316406 3.898438 11.574219 C 3.992188 11.761719 4.101562 11.949219 4.222656 12.125 C 4.519531 12.570312 4.941406 12.820312 5.492188 12.820312 C 6.738281 12.828125 7.925781 11.746094 7.855469 10.644531 C 7.839844 10.386719 7.773438 10.128906 7.679688 9.890625 C 7.578125 9.621094 7.449219 9.332031 7.777344 9.167969 C 8.167969 8.972656 8.28125 9.320312 8.414062 9.578125 C 8.699219 10.136719 9.070312 10.589844 9.699219 10.765625 C 10.554688 10.992188 11.230469 10.597656 11.824219 10.066406 C 12.375 9.570312 12.535156 8.902344 12.308594 8.1875 C 12.195312 7.839844 11.949219 7.535156 11.824219 7.183594 C 11.761719 7.011719 11.832031 6.785156 11.839844 6.585938 C 12.042969 6.632812 12.320312 6.613281 12.425781 6.738281 C 13.792969 8.433594 13.253906 10.378906 11.53125 11.238281 C 10.5625 11.71875 9.640625 11.761719 8.761719 11.203125 C 8.429688 11.691406 8.148438 12.207031 7.765625 12.625 C 7.234375 13.210938 6.515625 13.476562 5.734375 13.582031 C 5.609375 13.597656 5.476562 13.609375 5.351562 13.644531 C 4.890625 13.785156 4.492188 14.027344 4.445312 14.550781 Z M 26.484375 20.035156 C 26.46875 20.160156 26.449219 20.285156 26.433594 20.414062 C 26.441406 20.636719 26.449219 20.851562 26.457031 21.074219 C 26.460938 21.1875 26.460938 21.296875 26.46875 21.410156 C 26.457031 21.4375 26.441406 21.464844 26.433594 21.492188 C 26.113281 21.785156 25.835938 21.757812 25.757812 21.394531 C 25.625 20.734375 25.652344 20.078125 25.960938 19.449219 C 26.300781 18.890625 26.601562 18.296875 27.007812 17.789062 C 27.46875 17.203125 28.039062 16.707031 28.542969 16.15625 C 29.050781 15.597656 29.28125 14.957031 28.960938 14.230469 C 28.632812 13.492188 27.984375 13.175781 27.214844 13.085938 C 26.148438 12.960938 25.1875 13.246094 24.292969 13.8125 C 24.097656 13.929688 23.921875 14.113281 23.714844 14.167969 C 23.546875 14.21875 23.34375 14.121094 23.15625 14.089844 C 23.191406 13.925781 23.175781 13.667969 23.273438 13.601562 C 23.921875 13.207031 24.566406 12.765625 25.269531 12.515625 C 26.40625 12.109375 27.578125 12.101562 28.652344 12.765625 C 29.949219 13.5625 30.257812 15.070312 29.40625 16.324219 C 29.175781 16.660156 28.910156 16.972656 28.632812 17.257812 C 27.789062 18.089844 26.902344 18.882812 26.484375 20.035156 Z M 15.667969 9.320312 C 15.015625 10.367188 14.679688 11.503906 14.761719 12.753906 C 14.785156 13.039062 14.847656 13.40625 14.414062 13.421875 C 13.980469 13.4375 13.960938 13.058594 13.953125 12.753906 C 13.925781 11.769531 14.03125 10.769531 14.511719 9.914062 C 15.070312 8.914062 15.265625 7.875 15.3125 6.757812 C 15.335938 6.234375 15.515625 5.710938 15.65625 5.195312 C 15.730469 4.917969 15.859375 4.582031 16.253906 4.734375 C 16.613281 4.875 16.472656 5.175781 16.402344 5.449219 C 16.25 6.039062 16.117188 6.632812 15.976562 7.226562 C 16.023438 7.242188 16.082031 7.253906 16.128906 7.269531 C 16.171875 7.242188 16.214844 7.226562 16.25 7.191406 C 16.4375 7.003906 16.640625 6.851562 16.875 7.09375 C 17.113281 7.339844 16.960938 7.5625 16.792969 7.785156 C 16.410156 8.285156 16.003906 8.78125 15.667969 9.320312 Z M 17.601562 19.457031 C 17.351562 19.308594 17.101562 19.171875 16.839844 19.023438 C 16.554688 18.882812 16.4375 18.65625 16.652344 18.402344 C 16.835938 18.195312 17.085938 18.207031 17.265625 18.464844 C 17.296875 18.464844 17.316406 18.472656 17.328125 18.492188 C 17.523438 18.621094 17.71875 18.746094 17.917969 18.871094 C 18.015625 18.914062 18.117188 18.960938 18.214844 19.003906 C 18.605469 19.066406 19.011719 19.199219 19.394531 19.171875 C 20.007812 19.128906 20.621094 18.976562 21.230469 18.871094 C 20.992188 18.96875 20.761719 19.101562 20.523438 19.199219 C 20.761719 19.101562 20.992188 18.976562 21.230469 18.871094 C 21.242188 18.855469 21.265625 18.851562 21.285156 18.851562 C 21.398438 18.757812 21.507812 18.667969 21.621094 18.578125 C 21.675781 18.535156 21.730469 18.5 21.789062 18.460938 C 21.894531 18.332031 21.996094 18.207031 22.09375 18.074219 C 22.136719 18.011719 22.179688 17.949219 22.226562 17.894531 C 22.347656 17.761719 22.464844 17.621094 22.578125 17.488281 C 22.578125 17.488281 22.578125 17.496094 22.578125 17.496094 C 22.609375 17.453125 22.640625 17.414062 22.675781 17.371094 C 22.707031 17.316406 22.742188 17.265625 22.785156 17.210938 C 22.8125 17.175781 22.847656 17.140625 22.875 17.097656 C 22.875 17.097656 22.875 17.105469 22.875 17.105469 C 22.910156 17.0625 22.9375 17.023438 22.972656 16.980469 C 22.996094 16.953125 23.015625 16.929688 23.042969 16.902344 C 23.21875 16.707031 23.398438 16.511719 23.574219 16.316406 C 24.335938 15.429688 25.316406 14.929688 26.449219 14.71875 C 26.589844 14.691406 26.777344 14.894531 26.945312 14.992188 C 26.839844 15.144531 26.761719 15.363281 26.617188 15.4375 C 25.980469 15.757812 25.324219 16.023438 24.683594 16.339844 C 24.277344 16.535156 24.273438 16.910156 24.425781 17.257812 C 24.570312 17.578125 24.808594 17.859375 24.960938 18.179688 C 25.039062 18.339844 24.996094 18.550781 25.011719 18.730469 C 24.816406 18.71875 24.53125 18.773438 24.433594 18.667969 C 24.109375 18.3125 23.859375 17.894531 23.558594 17.460938 C 23.226562 17.871094 22.875 18.339844 22.484375 18.773438 C 22.019531 19.304688 21.472656 19.730469 20.734375 19.832031 C 20.707031 19.847656 20.679688 19.855469 20.644531 19.855469 C 20.589844 19.867188 20.53125 19.875 20.46875 19.890625 C 20.070312 19.929688 19.675781 19.960938 19.277344 20.007812 C 18.914062 20.050781 18.535156 20.058594 18.203125 20.183594 C 16.277344 20.929688 14.398438 20.902344 12.550781 19.960938 C 12.027344 19.652344 11.484375 19.367188 10.980469 19.023438 C 10.882812 18.960938 10.839844 18.632812 10.917969 18.535156 C 10.996094 18.429688 11.289062 18.367188 11.40625 18.429688 C 11.992188 18.746094 12.550781 19.101562 13.117188 19.441406 C 13.871094 19.601562 14.617188 19.855469 15.375 19.890625 C 16.082031 19.925781 16.808594 19.722656 17.519531 19.617188 C 17.566406 19.601562 17.582031 19.503906 17.601562 19.457031 Z M 9.433594 21.296875 C 9.433594 21.296875 9.425781 21.292969 9.433594 21.296875 C 9.425781 21.292969 9.425781 21.292969 9.425781 21.292969 C 9.425781 21.292969 9.433594 21.296875 9.433594 21.296875 Z M 24.601562 21.605469 C 24.535156 21.851562 24.390625 22.066406 24.277344 22.296875 C 24.417969 22.679688 24.570312 23.0625 24.683594 23.460938 C 24.730469 23.644531 24.691406 23.859375 24.691406 24.054688 C 24.496094 24.019531 24.214844 24.046875 24.109375 23.929688 C 23.664062 23.40625 23.425781 22.796875 23.609375 22.09375 C 23.726562 21.800781 23.796875 21.480469 23.980469 21.230469 C 24.070312 21.101562 24.347656 21.109375 24.542969 21.054688 C 24.566406 21.234375 24.640625 21.4375 24.601562 21.605469 Z M 24.601562 21.605469 " fill-opacity="1" fill-rule="nonzero"/></g></svg>