<svg xmlns="http://www.w3.org/2000/svg" xmlns:xlink="http://www.w3.org/1999/xlink" width="45" zoomAndPan="magnify" viewBox="0 0 33.75 33.749998" height="45" preserveAspectRatio="xMidYMid meet" version="1.0"><defs><clipPath id="36ec355356"><path d="M 1.605469 0.847656 L 32 0.847656 L 32 32.863281 L 1.605469 32.863281 Z M 1.605469 0.847656 " clip-rule="nonzero"/></clipPath></defs><g clip-path="url(#36ec355356)"><path fill="#042c62" d="M 20.875 25.414062 C 21.015625 25.414062 21.160156 25.40625 21.300781 25.390625 C 22.316406 25.28125 23.308594 24.785156 24.097656 23.996094 C 25.75 22.34375 25.988281 19.894531 24.628906 18.535156 C 23.957031 17.863281 23.007812 17.554688 21.960938 17.671875 C 20.945312 17.78125 19.953125 18.277344 19.167969 19.066406 C 18.378906 19.855469 17.882812 20.84375 17.769531 21.859375 C 17.65625 22.910156 17.960938 23.855469 18.632812 24.527344 C 19.210938 25.105469 19.996094 25.414062 20.875 25.414062 Z M 18.636719 21.953125 C 18.726562 21.136719 19.132812 20.328125 19.78125 19.679688 C 20.429688 19.03125 21.238281 18.625 22.054688 18.535156 C 22.164062 18.523438 22.273438 18.515625 22.382812 18.515625 C 23.03125 18.515625 23.601562 18.734375 24.015625 19.148438 C 25.03125 20.167969 24.792969 22.066406 23.480469 23.382812 C 22.832031 24.03125 22.023438 24.4375 21.207031 24.527344 C 20.425781 24.613281 19.730469 24.394531 19.25 23.914062 C 18.769531 23.433594 18.550781 22.734375 18.636719 21.953125 Z M 21.261719 23.660156 C 21.589844 23.648438 21.902344 23.578125 22.203125 23.445312 C 22.503906 23.316406 22.769531 23.132812 23 22.902344 C 23.234375 22.671875 23.414062 22.40625 23.546875 22.105469 C 23.679688 21.804688 23.753906 21.492188 23.765625 21.164062 C 23.773438 20.671875 23.609375 20.25 23.265625 19.898438 C 22.507812 19.144531 21.160156 19.257812 20.261719 20.160156 L 20.257812 20.160156 C 19.359375 21.058594 19.242188 22.40625 19.996094 23.164062 C 20.347656 23.503906 20.769531 23.671875 21.261719 23.660156 Z M 20.875 20.773438 C 21.4375 20.214844 22.234375 20.097656 22.648438 20.511719 C 22.820312 20.695312 22.902344 20.910156 22.894531 21.164062 C 22.878906 21.605469 22.710938 21.980469 22.386719 22.285156 C 21.824219 22.847656 21.03125 22.964844 20.613281 22.550781 C 20.199219 22.132812 20.316406 21.335938 20.875 20.773438 Z M 10.101562 23.085938 C 10.148438 23.085938 10.195312 23.085938 10.242188 23.082031 C 11.726562 23 13.742188 21.664062 14.714844 18.929688 C 15.878906 18.078125 15.835938 17.222656 15.621094 16.675781 C 16.089844 15.792969 15.953125 14.929688 15.226562 14.195312 C 15.382812 13.929688 15.429688 13.648438 15.367188 13.34375 C 15.277344 12.898438 14.925781 12.511719 14.296875 12.167969 C 14.355469 11.703125 14.265625 11.335938 14.03125 11.074219 C 13.769531 10.785156 13.359375 10.660156 12.8125 10.699219 C 12.238281 10.183594 11.742188 10 11.300781 10.132812 C 10.980469 10.226562 10.738281 10.472656 10.570312 10.871094 C 10.027344 10.625 9.574219 10.589844 9.1875 10.761719 C 8.777344 10.945312 8.5 11.34375 8.359375 11.945312 C 7.453125 12.667969 7.011719 13.40625 7.046875 14.136719 C 7.078125 14.699219 7.382812 15.234375 7.964844 15.730469 C 7.527344 15.976562 7.25 16.339844 7.128906 16.824219 C 7.097656 16.9375 7.113281 17.046875 7.167969 17.148438 C 7.226562 17.25 7.3125 17.320312 7.421875 17.355469 C 8.507812 17.679688 9.710938 18.414062 9.953125 19.316406 C 10.09375 19.839844 9.894531 20.394531 9.355469 20.964844 C 8.679688 21.6875 8.773438 22.21875 8.890625 22.472656 C 9.078125 22.867188 9.511719 23.085938 10.101562 23.085938 Z M 8.152344 16.683594 C 8.292969 16.515625 8.539062 16.371094 8.972656 16.316406 C 9.175781 16.289062 9.300781 16.175781 9.34375 15.976562 C 9.386719 15.773438 9.320312 15.621094 9.144531 15.511719 C 8.351562 15.027344 7.941406 14.550781 7.917969 14.09375 C 7.894531 13.632812 8.261719 13.109375 9.015625 12.539062 C 9.105469 12.46875 9.160156 12.378906 9.179688 12.269531 C 9.25 11.882812 9.378906 11.628906 9.539062 11.554688 C 9.660156 11.503906 9.953125 11.472656 10.601562 11.875 C 10.660156 11.910156 10.726562 11.933594 10.796875 11.9375 C 10.867188 11.941406 10.933594 11.933594 11 11.90625 C 11.0625 11.878906 11.121094 11.835938 11.164062 11.78125 C 11.210938 11.726562 11.238281 11.664062 11.253906 11.597656 C 11.355469 11.136719 11.488281 10.984375 11.550781 10.964844 C 11.5625 10.960938 11.78125 10.902344 12.355469 11.464844 C 12.457031 11.5625 12.578125 11.601562 12.71875 11.582031 C 13.214844 11.515625 13.351562 11.621094 13.382812 11.65625 C 13.414062 11.691406 13.503906 11.835938 13.390625 12.304688 C 13.332031 12.535156 13.414062 12.699219 13.628906 12.800781 C 14.367188 13.148438 14.496094 13.421875 14.519531 13.523438 C 14.542969 13.644531 14.476562 13.796875 14.320312 13.976562 C 14.238281 14.070312 14.203125 14.175781 14.214844 14.300781 C 14.226562 14.425781 14.28125 14.523438 14.375 14.601562 C 15.097656 15.175781 15.214844 15.71875 14.765625 16.417969 C 14.671875 16.566406 14.664062 16.714844 14.75 16.867188 C 14.871094 17.078125 15.148438 17.582031 14.101562 18.292969 C 14.023438 18.347656 13.96875 18.421875 13.9375 18.515625 C 13.097656 21.007812 11.5 21.945312 10.53125 22.164062 C 12.066406 20.980469 12.824219 19.675781 12.851562 18.191406 C 12.851562 17.632812 12.773438 17.085938 12.613281 16.550781 C 12.859375 16.410156 13.1875 16.410156 13.703125 16.847656 C 13.792969 16.921875 13.898438 16.953125 14.011719 16.941406 C 14.128906 16.933594 14.226562 16.882812 14.304688 16.792969 C 14.378906 16.703125 14.414062 16.601562 14.40625 16.484375 C 14.402344 16.367188 14.355469 16.269531 14.269531 16.191406 C 13.460938 15.492188 12.796875 15.515625 12.328125 15.722656 C 12.109375 15.1875 11.859375 14.664062 11.578125 14.160156 C 11.816406 14.046875 12.140625 14.066406 12.625 14.484375 C 12.714844 14.566406 12.824219 14.605469 12.945312 14.597656 C 13.070312 14.589844 13.171875 14.539062 13.25 14.445312 C 13.332031 14.351562 13.367188 14.246094 13.355469 14.121094 C 13.34375 14 13.289062 13.898438 13.191406 13.824219 C 12.316406 13.074219 11.617188 13.15625 11.144531 13.40625 C 11.0625 13.273438 10.980469 13.140625 10.902344 13.007812 C 10.839844 12.898438 10.75 12.828125 10.628906 12.800781 C 10.511719 12.769531 10.398438 12.785156 10.292969 12.847656 C 10.1875 12.914062 10.125 13.007812 10.097656 13.125 C 10.070312 13.246094 10.089844 13.359375 10.160156 13.460938 C 10.359375 13.785156 10.542969 14.101562 10.714844 14.40625 C 10.167969 14.367188 9.753906 14.644531 9.507812 14.882812 C 9.425781 14.964844 9.382812 15.066406 9.382812 15.183594 C 9.382812 15.300781 9.421875 15.402344 9.5 15.484375 C 9.582031 15.570312 9.679688 15.617188 9.796875 15.621094 C 9.914062 15.625 10.019531 15.589844 10.105469 15.511719 C 10.359375 15.269531 10.703125 15.097656 11.320312 15.59375 C 11.632812 16.277344 11.84375 16.910156 11.929688 17.507812 C 11.484375 17.222656 11 17.257812 10.675781 17.335938 C 10.5625 17.367188 10.476562 17.433594 10.417969 17.535156 C 10.355469 17.632812 10.339844 17.742188 10.367188 17.855469 C 10.394531 17.96875 10.460938 18.058594 10.558594 18.121094 C 10.65625 18.183594 10.761719 18.203125 10.878906 18.179688 C 11.21875 18.097656 11.605469 18.117188 11.894531 18.871094 C 11.703125 19.734375 11.167969 20.535156 10.199219 21.320312 C 10.933594 20.414062 10.933594 19.617188 10.792969 19.089844 C 10.484375 17.941406 9.300781 17.125 8.152344 16.683594 Z M 22.980469 10.164062 C 22.535156 10.164062 22.117188 10.273438 21.730469 10.492188 C 21.742188 10.132812 21.855469 9.773438 22.109375 9.210938 C 22.152344 9.105469 22.15625 8.996094 22.113281 8.886719 C 22.070312 8.777344 21.992188 8.699219 21.886719 8.652344 C 21.78125 8.601562 21.671875 8.597656 21.5625 8.636719 C 21.453125 8.675781 21.371094 8.746094 21.316406 8.851562 C 21.078125 9.375 20.921875 9.808594 20.875 10.265625 C 20.667969 10.207031 20.457031 10.171875 20.246094 10.167969 C 20.03125 10.160156 19.820312 10.179688 19.609375 10.226562 C 19.402344 10.273438 19.203125 10.347656 19.011719 10.441406 C 18.820312 10.539062 18.644531 10.660156 18.484375 10.800781 C 18.324219 10.941406 18.183594 11.101562 18.0625 11.277344 C 17.941406 11.453125 17.84375 11.644531 17.769531 11.84375 C 17.699219 12.046875 17.652344 12.253906 17.628906 12.464844 C 17.609375 12.679688 17.613281 12.890625 17.644531 13.101562 C 17.679688 13.3125 17.738281 13.519531 17.820312 13.714844 C 17.902344 13.914062 18.011719 14.097656 18.140625 14.265625 C 18.269531 14.4375 18.417969 14.585938 18.585938 14.71875 C 18.753906 14.851562 18.9375 14.960938 19.132812 15.050781 C 19.328125 15.136719 19.53125 15.199219 19.742188 15.234375 C 19.953125 15.269531 20.167969 15.277344 20.378906 15.261719 C 20.59375 15.242188 20.800781 15.199219 21.003906 15.128906 C 21.207031 15.058594 21.394531 14.964844 21.574219 14.847656 C 21.742188 14.957031 21.917969 15.046875 22.105469 15.113281 C 22.289062 15.183594 22.484375 15.226562 22.679688 15.25 C 22.878906 15.273438 23.074219 15.273438 23.273438 15.253906 C 23.472656 15.230469 23.664062 15.183594 23.851562 15.117188 C 24.039062 15.046875 24.214844 14.960938 24.378906 14.851562 C 24.546875 14.742188 24.699219 14.613281 24.835938 14.46875 C 24.972656 14.324219 25.089844 14.167969 25.1875 13.996094 C 25.289062 13.824219 25.367188 13.640625 25.425781 13.449219 C 25.480469 13.261719 25.515625 13.066406 25.527344 12.867188 C 25.539062 12.667969 25.527344 12.472656 25.492188 12.273438 C 25.457031 12.078125 25.402344 11.890625 25.324219 11.707031 C 25.246094 11.523438 25.144531 11.351562 25.027344 11.195312 C 24.910156 11.035156 24.773438 10.890625 24.621094 10.761719 C 24.46875 10.632812 24.304688 10.527344 24.125 10.4375 C 23.949219 10.347656 23.761719 10.28125 23.570312 10.234375 C 23.375 10.1875 23.179688 10.164062 22.980469 10.164062 Z M 22.980469 14.398438 C 22.554688 14.398438 22.183594 14.257812 21.863281 13.976562 C 21.78125 13.902344 21.683594 13.867188 21.574219 13.867188 C 21.464844 13.867188 21.371094 13.902344 21.285156 13.976562 C 21.125 14.121094 20.941406 14.226562 20.734375 14.300781 C 20.53125 14.375 20.320312 14.40625 20.105469 14.398438 C 19.886719 14.390625 19.679688 14.339844 19.480469 14.253906 C 19.28125 14.164062 19.109375 14.039062 18.957031 13.882812 C 18.804688 13.726562 18.691406 13.546875 18.609375 13.347656 C 18.527344 13.144531 18.488281 12.933594 18.488281 12.71875 C 18.488281 12.5 18.527344 12.292969 18.609375 12.089844 C 18.691406 11.886719 18.804688 11.707031 18.957031 11.550781 C 19.105469 11.394531 19.28125 11.273438 19.480469 11.183594 C 19.675781 11.09375 19.886719 11.046875 20.101562 11.035156 C 20.320312 11.027344 20.53125 11.058594 20.734375 11.132812 C 20.941406 11.207031 21.125 11.316406 21.285156 11.457031 C 21.367188 11.53125 21.464844 11.570312 21.574219 11.570312 C 21.6875 11.566406 21.78125 11.53125 21.863281 11.457031 C 21.964844 11.367188 22.078125 11.292969 22.199219 11.226562 C 22.320312 11.164062 22.445312 11.117188 22.578125 11.085938 C 22.710938 11.050781 22.84375 11.035156 22.980469 11.035156 C 23.117188 11.035156 23.25 11.050781 23.382812 11.085938 C 23.515625 11.117188 23.640625 11.164062 23.761719 11.226562 C 23.882812 11.292969 23.992188 11.367188 24.09375 11.457031 C 24.199219 11.546875 24.285156 11.648438 24.363281 11.761719 C 24.441406 11.875 24.503906 11.992188 24.554688 12.121094 C 24.601562 12.25 24.632812 12.378906 24.648438 12.515625 C 24.667969 12.648438 24.667969 12.785156 24.648438 12.921875 C 24.632812 13.054688 24.601562 13.1875 24.554688 13.3125 C 24.503906 13.441406 24.441406 13.5625 24.363281 13.671875 C 24.285156 13.785156 24.199219 13.886719 24.09375 13.976562 C 23.992188 14.066406 23.882812 14.144531 23.761719 14.207031 C 23.640625 14.269531 23.515625 14.320312 23.382812 14.351562 C 23.25 14.382812 23.117188 14.398438 22.980469 14.398438 Z M 3.386719 8.566406 L 3.386719 9.769531 C 2.976562 10.554688 2.636719 11.371094 2.371094 12.214844 C 2.105469 13.0625 1.914062 13.925781 1.800781 14.804688 C 1.6875 15.683594 1.648438 16.566406 1.691406 17.453125 C 1.730469 18.339844 1.851562 19.214844 2.046875 20.078125 C 2.242188 20.945312 2.511719 21.785156 2.855469 22.605469 C 3.199219 23.421875 3.609375 24.203125 4.09375 24.949219 C 4.574219 25.691406 5.117188 26.390625 5.71875 27.039062 C 6.324219 27.6875 6.980469 28.28125 7.6875 28.8125 C 8.398438 29.347656 9.148438 29.816406 9.9375 30.21875 C 10.726562 30.617188 11.546875 30.949219 12.398438 31.207031 C 13.246094 31.464844 14.109375 31.644531 14.992188 31.75 C 15.871094 31.855469 16.753906 31.882812 17.640625 31.832031 C 18.527344 31.78125 19.398438 31.652344 20.261719 31.449219 C 21.125 31.242188 21.964844 30.964844 22.777344 30.613281 C 23.59375 30.257812 24.371094 29.839844 25.109375 29.347656 C 25.847656 28.859375 26.539062 28.308594 27.183594 27.699219 L 27.183594 32.210938 C 27.183594 32.332031 27.226562 32.433594 27.3125 32.519531 C 27.394531 32.601562 27.5 32.644531 27.617188 32.644531 L 29.933594 32.644531 C 30.050781 32.644531 30.15625 32.601562 30.242188 32.519531 C 30.324219 32.433594 30.367188 32.332031 30.367188 32.210938 L 30.367188 23.359375 C 30.648438 22.785156 30.890625 22.199219 31.09375 21.59375 C 31.296875 20.988281 31.464844 20.375 31.589844 19.75 C 31.71875 19.125 31.804688 18.492188 31.851562 17.859375 C 31.898438 17.222656 31.90625 16.585938 31.871094 15.949219 C 31.839844 15.3125 31.765625 14.679688 31.652344 14.050781 C 31.539062 13.421875 31.382812 12.804688 31.191406 12.199219 C 31 11.589844 30.769531 10.996094 30.503906 10.417969 C 30.234375 9.835938 29.933594 9.277344 29.59375 8.734375 C 29.257812 8.195312 28.886719 7.679688 28.484375 7.183594 C 28.078125 6.691406 27.644531 6.222656 27.183594 5.785156 C 26.71875 5.347656 26.230469 4.9375 25.71875 4.5625 C 25.203125 4.183594 24.667969 3.839844 24.109375 3.53125 C 23.550781 3.222656 22.976562 2.949219 22.382812 2.714844 C 21.789062 2.476562 21.1875 2.277344 20.566406 2.121094 C 19.949219 1.960938 19.324219 1.839844 18.691406 1.757812 C 18.058594 1.679688 17.425781 1.636719 16.785156 1.636719 C 15.28125 1.632812 13.804688 1.851562 12.363281 2.292969 C 10.921875 2.734375 9.578125 3.378906 8.332031 4.226562 L 8.332031 1.273438 C 8.328125 1.15625 8.28125 1.058594 8.199219 0.976562 C 8.113281 0.894531 8.011719 0.855469 7.894531 0.855469 C 7.777344 0.855469 7.679688 0.894531 7.59375 0.976562 C 7.507812 1.058594 7.464844 1.15625 7.460938 1.273438 L 7.460938 4.140625 C 7.382812 4.398438 7.207031 4.527344 6.9375 4.527344 C 6.664062 4.527344 6.484375 4.394531 6.394531 4.140625 L 6.394531 1.273438 C 6.390625 1.15625 6.347656 1.058594 6.261719 0.976562 C 6.175781 0.894531 6.078125 0.855469 5.960938 0.855469 C 5.84375 0.855469 5.742188 0.894531 5.65625 0.976562 C 5.574219 1.058594 5.527344 1.15625 5.523438 1.273438 L 5.523438 4.136719 C 5.433594 4.398438 5.253906 4.527344 4.976562 4.527344 C 4.703125 4.527344 4.523438 4.398438 4.433594 4.140625 L 4.433594 1.273438 C 4.429688 1.15625 4.382812 1.058594 4.300781 0.976562 C 4.214844 0.894531 4.113281 0.855469 3.996094 0.855469 C 3.878906 0.855469 3.78125 0.894531 3.695312 0.976562 C 3.609375 1.058594 3.566406 1.15625 3.5625 1.273438 L 3.5625 4.136719 C 3.472656 4.394531 3.289062 4.523438 3.015625 4.527344 C 2.726562 4.527344 2.597656 4.371094 2.476562 4.097656 L 2.472656 4.082031 L 2.472656 1.273438 C 2.464844 1.15625 2.421875 1.058594 2.339844 0.976562 C 2.253906 0.894531 2.152344 0.855469 2.035156 0.855469 C 1.917969 0.855469 1.816406 0.894531 1.734375 0.976562 C 1.648438 1.058594 1.605469 1.15625 1.601562 1.273438 L 1.601562 5.855469 C 1.605469 6.441406 1.769531 6.984375 2.09375 7.476562 C 2.417969 7.964844 2.847656 8.332031 3.386719 8.566406 Z M 27.183594 26.464844 C 25.835938 27.902344 24.257812 29.011719 22.453125 29.796875 C 20.644531 30.582031 18.757812 30.976562 16.785156 30.976562 C 8.9375 30.976562 2.550781 24.589844 2.550781 16.742188 C 2.550781 15.09375 2.832031 13.492188 3.386719 11.9375 L 3.386719 16.171875 C 3.386719 16.382812 3.425781 16.585938 3.507812 16.78125 C 3.589844 16.976562 3.703125 17.148438 3.851562 17.296875 C 4.003906 17.445312 4.175781 17.5625 4.367188 17.644531 C 4.5625 17.722656 4.765625 17.765625 4.976562 17.765625 C 5.023438 17.765625 5.066406 17.761719 5.109375 17.757812 C 5.152344 18.25 5.226562 18.734375 5.332031 19.21875 C 5.4375 19.699219 5.570312 20.171875 5.734375 20.636719 C 5.898438 21.101562 6.089844 21.554688 6.3125 21.996094 C 6.535156 22.4375 6.78125 22.863281 7.054688 23.269531 C 7.332031 23.679688 7.628906 24.070312 7.953125 24.441406 C 8.277344 24.8125 8.625 25.164062 8.992188 25.492188 C 9.359375 25.820312 9.746094 26.121094 10.152344 26.402344 C 10.5625 26.679688 10.984375 26.933594 11.421875 27.160156 C 11.859375 27.386719 12.308594 27.582031 12.773438 27.75 C 13.238281 27.921875 13.707031 28.058594 14.1875 28.167969 C 14.667969 28.277344 15.15625 28.355469 15.644531 28.40625 C 16.136719 28.453125 16.628906 28.46875 17.121094 28.457031 C 17.613281 28.441406 18.105469 28.398438 18.589844 28.320312 C 19.078125 28.246094 19.558594 28.140625 20.03125 28.003906 C 20.503906 27.867188 20.96875 27.703125 21.421875 27.507812 C 21.875 27.3125 22.3125 27.089844 22.738281 26.839844 C 24.070312 26.050781 25.203125 25.039062 26.136719 23.804688 L 26.136719 24.886719 C 26.136719 25.007812 26.179688 25.109375 26.265625 25.195312 C 26.347656 25.277344 26.453125 25.320312 26.570312 25.320312 L 27.183594 25.320312 Z M 5.957031 17.425781 C 6.367188 17.109375 6.570312 16.691406 6.570312 16.171875 L 6.570312 13.085938 C 6.933594 12.066406 7.441406 11.125 8.085938 10.257812 C 8.734375 9.394531 9.492188 8.640625 10.363281 8 C 11.234375 7.359375 12.179688 6.859375 13.203125 6.503906 C 14.222656 6.144531 15.273438 5.945312 16.351562 5.902344 L 16.351562 27.582031 C 15.6875 27.558594 15.027344 27.472656 14.378906 27.324219 C 13.730469 27.179688 13.097656 26.976562 12.488281 26.714844 C 11.875 26.449219 11.292969 26.132812 10.738281 25.765625 C 10.183594 25.394531 9.671875 24.976562 9.195312 24.511719 C 8.71875 24.046875 8.289062 23.539062 7.90625 22.996094 C 7.523438 22.449219 7.191406 21.875 6.917969 21.269531 C 6.640625 20.664062 6.421875 20.039062 6.261719 19.390625 C 6.097656 18.746094 6 18.089844 5.957031 17.425781 Z M 26.335938 17.175781 C 26.199219 17.59375 26.132812 18.019531 26.136719 18.457031 L 26.136719 22.246094 C 25.675781 23.027344 25.125 23.738281 24.484375 24.382812 C 23.84375 25.027344 23.136719 25.578125 22.355469 26.046875 C 21.578125 26.511719 20.753906 26.875 19.886719 27.132812 C 19.015625 27.394531 18.128906 27.542969 17.222656 27.582031 L 17.222656 17.175781 Z M 17.222656 16.308594 L 17.222656 5.902344 C 22.621094 6.117188 27.078125 10.320312 27.585938 15.707031 C 27.289062 15.851562 27.03125 16.050781 26.820312 16.308594 Z M 29.496094 31.773438 L 28.054688 31.773438 L 28.054688 24.886719 C 28.054688 24.765625 28.011719 24.664062 27.925781 24.578125 C 27.839844 24.492188 27.738281 24.449219 27.617188 24.449219 L 27.007812 24.449219 L 27.007812 18.457031 C 27.007812 17.957031 27.132812 16.320312 28.753906 16.320312 L 29.496094 16.320312 Z M 8.355469 5.847656 L 8.347656 5.28125 C 9.566406 4.375 10.898438 3.6875 12.34375 3.210938 C 13.785156 2.738281 15.265625 2.503906 16.785156 2.507812 C 24.636719 2.507812 31.019531 8.894531 31.019531 16.742188 C 31.023438 18.203125 30.804688 19.628906 30.367188 21.023438 L 30.367188 15.886719 C 30.367188 15.765625 30.324219 15.664062 30.238281 15.578125 C 30.15625 15.492188 30.050781 15.449219 29.933594 15.449219 L 28.757812 15.449219 C 28.648438 15.449219 28.542969 15.457031 28.4375 15.46875 C 28.371094 14.855469 28.253906 14.25 28.09375 13.65625 C 27.929688 13.0625 27.722656 12.484375 27.46875 11.921875 C 27.214844 11.359375 26.917969 10.820312 26.578125 10.304688 C 26.242188 9.789062 25.863281 9.304688 25.449219 8.847656 C 25.03125 8.394531 24.585938 7.972656 24.101562 7.585938 C 23.621094 7.203125 23.113281 6.859375 22.574219 6.554688 C 22.039062 6.25 21.484375 5.988281 20.90625 5.769531 C 20.328125 5.554688 19.738281 5.382812 19.132812 5.261719 C 18.527344 5.136719 17.917969 5.0625 17.304688 5.035156 C 16.6875 5.007812 16.074219 5.027344 15.460938 5.097656 C 14.847656 5.167969 14.242188 5.285156 13.648438 5.449219 C 13.054688 5.613281 12.476562 5.824219 11.917969 6.082031 C 11.355469 6.335938 10.820312 6.636719 10.304688 6.976562 C 9.792969 7.316406 9.308594 7.695312 8.851562 8.113281 C 8.398438 8.53125 7.980469 8.980469 7.597656 9.464844 C 7.214844 9.949219 6.871094 10.457031 6.570312 10.996094 L 6.570312 8.566406 C 7.109375 8.328125 7.539062 7.964844 7.863281 7.472656 C 8.1875 6.980469 8.351562 6.4375 8.355469 5.847656 Z M 2.46875 5.296875 C 2.644531 5.367188 2.828125 5.402344 3.015625 5.398438 C 3.390625 5.398438 3.71875 5.269531 3.996094 5.015625 C 4.128906 5.140625 4.28125 5.234375 4.449219 5.300781 C 4.621094 5.367188 4.796875 5.398438 4.976562 5.398438 C 5.160156 5.398438 5.332031 5.367188 5.503906 5.300781 C 5.671875 5.234375 5.824219 5.140625 5.957031 5.015625 C 6.234375 5.269531 6.5625 5.398438 6.941406 5.398438 C 7.125 5.398438 7.304688 5.363281 7.476562 5.289062 L 7.484375 5.855469 C 7.480469 6.3125 7.34375 6.726562 7.070312 7.09375 C 6.796875 7.460938 6.445312 7.714844 6.007812 7.851562 C 5.800781 7.914062 5.699219 8.054688 5.699219 8.265625 L 5.699219 16.171875 C 5.703125 16.375 5.632812 16.546875 5.492188 16.6875 C 5.351562 16.832031 5.179688 16.902344 4.976562 16.902344 C 4.777344 16.902344 4.605469 16.832031 4.464844 16.6875 C 4.324219 16.546875 4.253906 16.375 4.257812 16.171875 L 4.257812 8.265625 C 4.257812 8.054688 4.152344 7.914062 3.949219 7.851562 C 3.511719 7.714844 3.15625 7.460938 2.886719 7.09375 C 2.613281 6.726562 2.472656 6.3125 2.46875 5.855469 Z M 2.46875 5.296875 " fill-opacity="1" fill-rule="nonzero"/></g></svg>