<svg xmlns="http://www.w3.org/2000/svg" xmlns:xlink="http://www.w3.org/1999/xlink" width="45" zoomAndPan="magnify" viewBox="0 0 33.75 33.749998" height="45" preserveAspectRatio="xMidYMid meet" version="1.0"><defs><clipPath id="8f8ebeb511"><path d="M 0.484375 3.351562 L 33.242188 3.351562 L 33.242188 30.894531 L 0.484375 30.894531 Z M 0.484375 3.351562 " clip-rule="nonzero"/></clipPath></defs><g clip-path="url(#8f8ebeb511)"><path fill="#042c62" d="M 13.773438 3.632812 C 12.996094 3.632812 12.351562 4.277344 12.351562 5.054688 L 12.351562 6.160156 L 2.3125 6.160156 C 1.308594 6.160156 0.484375 6.984375 0.484375 7.988281 L 0.484375 22.9375 C 0.484375 23.941406 1.308594 24.765625 2.3125 24.765625 L 10.1875 24.765625 L 9.273438 27.1875 L 7.820312 27.1875 C 7.011719 27.1875 6.347656 27.851562 6.347656 28.660156 C 6.347656 29.46875 7.011719 30.132812 7.820312 30.132812 L 33.042969 30.132812 C 33.183594 30.132812 33.308594 30.085938 33.410156 29.984375 C 33.511719 29.882812 33.5625 29.761719 33.5625 29.621094 L 33.5625 26.425781 C 33.5625 23.433594 31.65625 20.890625 28.996094 19.941406 C 30.34375 19.140625 31.253906 17.664062 31.253906 15.980469 C 31.253906 13.625 29.476562 11.667969 27.199219 11.410156 L 27.199219 7.988281 C 27.199219 6.984375 26.378906 6.160156 25.375 6.160156 L 23.527344 6.160156 L 23.527344 5.054688 C 23.527344 4.277344 22.882812 3.632812 22.105469 3.632812 Z M 13.773438 4.667969 L 22.105469 4.667969 C 22.332031 4.667969 22.492188 4.835938 22.492188 5.054688 L 22.492188 10.023438 C 22.492188 10.246094 22.332031 10.410156 22.105469 10.410156 L 17.710938 10.410156 C 17.605469 10.410156 17.507812 10.4375 17.421875 10.492188 L 15.695312 11.625 L 15.695312 10.929688 C 15.695312 10.785156 15.644531 10.664062 15.542969 10.5625 C 15.441406 10.460938 15.320312 10.410156 15.175781 10.410156 L 13.773438 10.410156 C 13.550781 10.410156 13.386719 10.246094 13.386719 10.023438 L 13.386719 5.054688 C 13.386719 4.835938 13.550781 4.667969 13.773438 4.667969 Z M 2.3125 7.195312 L 12.351562 7.195312 L 12.351562 10.023438 C 12.351562 10.800781 12.996094 11.441406 13.773438 11.441406 L 14.660156 11.441406 L 14.660156 12.578125 C 14.660156 12.785156 14.75 12.9375 14.929688 13.039062 C 15.113281 13.136719 15.289062 13.128906 15.460938 13.015625 L 17.863281 11.441406 L 22.105469 11.441406 C 22.882812 11.441406 23.527344 10.800781 23.527344 10.023438 L 23.527344 7.195312 L 25.375 7.195312 C 25.824219 7.195312 26.171875 7.539062 26.171875 7.988281 L 26.171875 11.410156 C 23.894531 11.671875 22.121094 13.625 22.121094 15.980469 C 22.121094 17.664062 23.027344 19.140625 24.378906 19.941406 C 23.671875 20.191406 23.015625 20.554688 22.4375 21.011719 L 13.742188 21.011719 L 13.742188 19.417969 C 13.742188 17.484375 12.582031 15.820312 10.925781 15.085938 C 11.710938 14.496094 12.21875 13.558594 12.21875 12.503906 C 12.21875 10.738281 10.785156 9.292969 9.027344 9.292969 C 7.269531 9.292969 5.839844 10.738281 5.839844 12.503906 C 5.839844 13.558594 6.347656 14.5 7.132812 15.085938 C 5.476562 15.820312 4.320312 17.484375 4.320312 19.417969 L 4.320312 21.011719 L 1.515625 21.011719 L 1.515625 7.988281 C 1.515625 7.539062 1.859375 7.195312 2.3125 7.195312 Z M 8.972656 10.324219 C 8.992188 10.324219 9.011719 10.324219 9.027344 10.324219 C 10.222656 10.324219 11.183594 11.289062 11.183594 12.503906 C 11.183594 13.71875 10.222656 14.6875 9.027344 14.6875 C 7.835938 14.6875 6.875 13.71875 6.875 12.503906 C 6.875 11.308594 7.804688 10.355469 8.972656 10.324219 Z M 26.6875 12.417969 C 28.640625 12.417969 30.21875 14.003906 30.21875 15.980469 C 30.21875 17.957031 28.640625 19.542969 26.6875 19.542969 C 24.730469 19.542969 23.152344 17.957031 23.152344 15.980469 C 23.152344 14.003906 24.730469 12.417969 26.6875 12.417969 Z M 9.027344 15.71875 C 11.074219 15.71875 12.707031 17.359375 12.707031 19.417969 L 12.707031 21.011719 L 5.355469 21.011719 L 5.355469 19.417969 C 5.355469 17.359375 6.984375 15.71875 9.027344 15.71875 Z M 26.6875 20.574219 C 29.929688 20.574219 32.527344 23.175781 32.527344 26.425781 L 32.527344 29.101562 L 20.84375 29.101562 L 20.84375 26.425781 C 20.84375 25.726562 20.964844 25.058594 21.1875 24.4375 C 21.191406 24.425781 21.195312 24.417969 21.199219 24.40625 C 21.546875 23.449219 22.132812 22.609375 22.890625 21.964844 C 22.929688 21.941406 22.964844 21.910156 22.992188 21.878906 C 23.996094 21.0625 25.28125 20.574219 26.6875 20.574219 Z M 1.515625 22.046875 L 21.382812 22.046875 L 21.378906 22.046875 C 20.964844 22.550781 20.617188 23.121094 20.355469 23.730469 L 2.3125 23.730469 C 1.859375 23.730469 1.515625 23.386719 1.515625 22.9375 Z M 11.292969 24.765625 L 17.003906 24.765625 L 17.914062 27.1875 L 10.375 27.1875 Z M 18.105469 24.765625 L 20.011719 24.765625 C 19.882812 25.296875 19.8125 25.851562 19.8125 26.425781 L 19.8125 27.1875 L 19.023438 27.1875 Z M 7.820312 28.222656 L 19.8125 28.222656 L 19.8125 29.105469 L 7.820312 29.105469 C 7.566406 29.105469 7.382812 28.914062 7.382812 28.660156 C 7.382812 28.410156 7.566406 28.222656 7.820312 28.222656 Z M 7.820312 28.222656 " fill-opacity="1" fill-rule="nonzero"/></g></svg>