<svg xmlns="http://www.w3.org/2000/svg" xmlns:xlink="http://www.w3.org/1999/xlink" width="45" zoomAndPan="magnify" viewBox="0 0 33.75 33.749998" height="45" preserveAspectRatio="xMidYMid meet" version="1.0"><defs><clipPath id="13b68df791"><path d="M 2.167969 0.53125 L 31.199219 0.53125 L 31.199219 33 L 2.167969 33 Z M 2.167969 0.53125 " clip-rule="nonzero"/></clipPath></defs><g clip-path="url(#13b68df791)"><path fill="#042c62" d="M 30.472656 18.238281 C 29.679688 17.027344 28.601562 15.375 28.558594 14.828125 C 28.574219 14.671875 28.589844 14.511719 28.605469 14.351562 C 28.753906 12.851562 28.921875 11.15625 28.585938 9.464844 C 27.988281 6.457031 25.769531 3.796875 22.5 2.164062 C 20.339844 1.089844 17.921875 0.546875 15.5 0.597656 C 13.050781 0.652344 10.679688 1.316406 8.644531 2.519531 C 5.589844 4.328125 3.53125 7.230469 2.851562 10.699219 C 2.167969 14.171875 3.339844 16.894531 4.582031 19.78125 C 6.078125 23.25 7.621094 26.835938 6.5 32.410156 C 6.476562 32.542969 6.507812 32.679688 6.59375 32.785156 C 6.679688 32.886719 6.808594 32.949219 6.941406 32.949219 L 17.96875 32.949219 C 18.160156 32.949219 18.328125 32.828125 18.390625 32.652344 C 18.433594 32.53125 18.476562 32.410156 18.519531 32.289062 C 18.667969 31.867188 18.820312 31.433594 18.992188 31.046875 C 19.59375 29.703125 20.320312 29.371094 22.113281 29.621094 C 22.515625 29.679688 22.917969 29.765625 23.304688 29.847656 C 24.382812 30.078125 25.398438 30.300781 26.175781 29.765625 C 26.691406 29.414062 27.015625 28.78125 27.167969 27.835938 C 27.210938 27.570312 27.230469 27.308594 27.253906 27.082031 C 27.269531 26.863281 27.296875 26.582031 27.332031 26.449219 C 27.652344 26.304688 27.898438 26.054688 28.035156 25.726562 C 28.191406 25.359375 28.179688 24.9375 28.007812 24.59375 C 27.878906 24.335938 27.667969 24.167969 27.445312 24.035156 L 27.453125 24.035156 C 27.972656 23.90625 28.195312 23.628906 28.292969 23.417969 C 28.394531 23.199219 28.457031 22.839844 28.222656 22.332031 C 28.199219 22.210938 28.164062 22.09375 28.136719 21.988281 C 28.105469 21.867188 28.058594 21.691406 28.050781 21.605469 C 28.277344 21.414062 28.84375 21.355469 29.265625 21.3125 C 30.191406 21.21875 30.753906 20.929688 30.996094 20.429688 C 31.332031 19.726562 30.894531 18.890625 30.472656 18.238281 Z M 30.183594 20.039062 C 30.097656 20.222656 29.730469 20.363281 29.175781 20.417969 C 28.515625 20.484375 27.769531 20.5625 27.34375 21.042969 C 27.042969 21.382812 27.164062 21.828125 27.269531 22.222656 C 27.300781 22.335938 27.332031 22.453125 27.355469 22.5625 C 27.359375 22.601562 27.375 22.640625 27.390625 22.675781 C 27.496094 22.882812 27.492188 23.003906 27.476562 23.039062 C 27.460938 23.074219 27.390625 23.125 27.238281 23.164062 L 27.039062 23.210938 C 26.765625 23.28125 26.359375 23.382812 26 23.46875 C 25.820312 23.507812 25.683594 23.652344 25.65625 23.835938 C 25.628906 24.015625 25.710938 24.195312 25.863281 24.289062 C 25.90625 24.316406 25.949219 24.332031 26.046875 24.375 C 26.160156 24.421875 26.332031 24.492188 26.535156 24.589844 C 26.582031 24.613281 26.628906 24.636719 26.679688 24.65625 C 26.886719 24.753906 27.140625 24.871094 27.203125 25 C 27.257812 25.109375 27.261719 25.253906 27.207031 25.378906 C 27.167969 25.472656 27.085938 25.59375 26.910156 25.648438 C 26.867188 25.664062 26.832031 25.683594 26.796875 25.707031 C 26.449219 25.941406 26.410156 26.410156 26.355469 27.003906 C 26.335938 27.226562 26.316406 27.460938 26.28125 27.695312 C 26.171875 28.382812 25.972656 28.820312 25.671875 29.023438 C 25.210938 29.339844 24.414062 29.167969 23.492188 28.96875 C 23.089844 28.882812 22.671875 28.792969 22.238281 28.730469 C 20.382812 28.472656 19.054688 28.707031 18.171875 30.679688 C 17.984375 31.101562 17.828125 31.550781 17.671875 31.988281 C 17.664062 32.011719 17.660156 32.03125 17.652344 32.050781 L 7.484375 32.050781 C 8.453125 26.496094 6.839844 22.746094 5.410156 19.425781 C 4.171875 16.550781 3.105469 14.070312 3.730469 10.875 C 4.363281 7.660156 6.269531 4.96875 9.101562 3.292969 C 11.003906 2.167969 13.226562 1.546875 15.519531 1.496094 C 17.796875 1.449219 20.070312 1.957031 22.097656 2.96875 C 25.117188 4.476562 27.164062 6.90625 27.703125 9.636719 C 28.015625 11.199219 27.859375 12.757812 27.710938 14.261719 C 27.695312 14.4375 27.675781 14.605469 27.660156 14.777344 C 27.660156 14.792969 27.660156 14.8125 27.660156 14.828125 C 27.675781 15.496094 28.28125 16.527344 29.71875 18.726562 C 30.265625 19.574219 30.246094 19.914062 30.1875 20.039062 Z M 24.273438 9.203125 C 24.355469 8.753906 24.359375 8.285156 24.269531 7.820312 C 24 6.390625 22.910156 5.246094 21.5 4.90625 C 20.890625 4.757812 20.269531 4.769531 19.6875 4.921875 C 19 3.898438 17.921875 3.238281 16.746094 3.140625 C 15.71875 3.058594 14.761719 3.410156 14.082031 4.117188 C 12.601562 3.417969 10.765625 3.460938 9.246094 4.335938 C 8.332031 4.859375 7.640625 5.628906 7.253906 6.554688 C 6.84375 7.53125 6.785156 8.664062 7.082031 9.847656 C 6.53125 10.308594 6.105469 10.910156 5.851562 11.621094 C 5.375 12.949219 5.59375 14.382812 6.4375 15.496094 C 6.28125 16.640625 6.878906 17.617188 7.664062 18.074219 C 7.453125 19.113281 7.4375 20.765625 8.195312 21.789062 C 8.332031 21.972656 8.730469 22.511719 9.25 22.507812 C 9.304688 22.507812 9.355469 22.503906 9.410156 22.492188 C 10.003906 22.367188 10.171875 21.625 10.226562 21.378906 C 10.242188 21.316406 10.253906 21.25 10.269531 21.179688 C 10.417969 20.488281 10.601562 19.632812 11.496094 18.988281 C 11.972656 18.976562 12.4375 18.832031 12.839844 18.582031 C 12.898438 18.625 12.960938 18.667969 13.023438 18.707031 C 13.613281 19.085938 14.292969 19.277344 14.972656 19.277344 C 15.542969 19.277344 16.113281 19.144531 16.636719 18.871094 C 17.019531 18.675781 17.355469 18.410156 17.636719 18.101562 C 18.230469 18.425781 18.878906 18.585938 19.511719 18.585938 C 20.121094 18.585938 20.71875 18.4375 21.25 18.136719 C 22.253906 17.570312 22.871094 16.554688 22.9375 15.386719 C 22.980469 15.378906 23.019531 15.367188 23.0625 15.355469 C 24.167969 15.054688 25.097656 13.964844 25.378906 12.648438 C 25.660156 11.332031 25.253906 10.085938 24.273438 9.203125 Z M 24.5 12.460938 C 24.289062 13.441406 23.601562 14.277344 22.828125 14.488281 C 22.203125 14.660156 21.574219 14.425781 21.003906 13.808594 C 20.835938 13.625 20.550781 13.613281 20.371094 13.78125 C 20.1875 13.949219 20.175781 14.234375 20.34375 14.417969 C 20.855469 14.96875 21.433594 15.304688 22.03125 15.410156 C 21.964844 16.246094 21.53125 16.945312 20.808594 17.355469 C 20.007812 17.808594 19.039062 17.804688 18.160156 17.359375 C 18.410156 16.890625 18.558594 16.367188 18.582031 15.820312 C 18.589844 15.574219 18.398438 15.363281 18.152344 15.355469 C 17.902344 15.34375 17.691406 15.535156 17.683594 15.785156 C 17.640625 16.75 17.082031 17.628906 16.222656 18.074219 C 15.363281 18.519531 14.324219 18.472656 13.507812 17.949219 C 12.691406 17.425781 12.21875 16.5 12.265625 15.53125 C 12.277344 15.285156 12.085938 15.074219 11.839844 15.0625 C 11.589844 15.050781 11.378906 15.242188 11.367188 15.488281 C 11.324219 16.382812 11.613281 17.25 12.160156 17.929688 C 11.914062 18.042969 11.644531 18.097656 11.367188 18.089844 C 11.277344 18.085938 11.183594 18.113281 11.109375 18.164062 C 9.816406 19.015625 9.558594 20.207031 9.390625 20.992188 C 9.375 21.058594 9.363281 21.121094 9.347656 21.183594 C 9.300781 21.398438 9.25 21.515625 9.214844 21.578125 C 9.15625 21.53125 9.058594 21.441406 8.917969 21.25 C 8.296875 20.414062 8.371094 18.789062 8.621094 17.953125 C 8.6875 17.722656 8.5625 17.480469 8.335938 17.398438 C 7.710938 17.183594 7.15625 16.382812 7.351562 15.46875 C 7.382812 15.332031 7.347656 15.191406 7.257812 15.085938 C 6.515625 14.199219 6.304688 13.015625 6.699219 11.925781 C 7.089844 10.832031 8.003906 10.054688 9.140625 9.839844 C 9.382812 9.796875 9.546875 9.5625 9.5 9.316406 C 9.453125 9.074219 9.21875 8.914062 8.976562 8.957031 C 8.589844 9.03125 8.222656 9.152344 7.882812 9.320312 C 7.542969 7.523438 8.199219 5.972656 9.691406 5.113281 C 11.136719 4.285156 13.347656 4.222656 14.78125 5.707031 C 14.953125 5.882812 15.238281 5.886719 15.417969 5.714844 C 15.59375 5.542969 15.601562 5.257812 15.425781 5.082031 C 15.257812 4.902344 15.074219 4.746094 14.878906 4.601562 C 15.359375 4.183594 15.992188 3.980469 16.671875 4.039062 C 17.511719 4.109375 18.292969 4.558594 18.824219 5.261719 C 18.398438 5.5 18.011719 5.820312 17.699219 6.21875 C 17.546875 6.414062 17.578125 6.699219 17.773438 6.851562 C 17.96875 7.003906 18.253906 6.96875 18.40625 6.773438 C 19.085938 5.910156 20.21875 5.519531 21.285156 5.777344 C 22.355469 6.039062 23.179688 6.90625 23.386719 7.988281 C 23.546875 8.816406 23.328125 9.664062 22.785156 10.316406 C 22.628906 10.503906 22.65625 10.789062 22.84375 10.949219 C 22.929688 11.015625 23.03125 11.050781 23.132812 11.050781 C 23.261719 11.050781 23.390625 10.996094 23.476562 10.890625 C 23.664062 10.664062 23.824219 10.417969 23.949219 10.164062 C 24.480469 10.792969 24.679688 11.605469 24.5 12.460938 Z M 18.15625 9.390625 L 16.628906 9.390625 L 16.628906 7.859375 C 16.628906 7.347656 16.210938 6.929688 15.695312 6.929688 L 14.246094 6.929688 C 13.734375 6.929688 13.316406 7.347656 13.316406 7.859375 L 13.316406 9.390625 L 11.789062 9.390625 C 11.273438 9.390625 10.855469 9.808594 10.855469 10.320312 L 10.855469 11.769531 C 10.855469 12.285156 11.273438 12.703125 11.789062 12.703125 L 13.316406 12.703125 L 13.316406 14.230469 C 13.316406 14.742188 13.734375 15.160156 14.246094 15.160156 L 15.695312 15.160156 C 16.210938 15.160156 16.628906 14.742188 16.628906 14.230469 L 16.628906 12.703125 L 18.15625 12.703125 C 18.667969 12.703125 19.085938 12.285156 19.085938 11.769531 L 19.085938 10.320312 C 19.085938 9.808594 18.667969 9.390625 18.15625 9.390625 Z M 18.1875 11.769531 C 18.1875 11.789062 18.171875 11.804688 18.15625 11.804688 L 16.179688 11.804688 C 15.929688 11.804688 15.730469 12.003906 15.730469 12.253906 L 15.730469 14.230469 C 15.730469 14.246094 15.714844 14.261719 15.695312 14.261719 L 14.246094 14.261719 C 14.230469 14.261719 14.214844 14.246094 14.214844 14.230469 L 14.214844 12.253906 C 14.214844 12.003906 14.011719 11.804688 13.765625 11.804688 L 11.789062 11.804688 C 11.769531 11.804688 11.753906 11.789062 11.753906 11.769531 L 11.753906 10.320312 C 11.753906 10.304688 11.769531 10.289062 11.789062 10.289062 L 13.765625 10.289062 C 14.011719 10.289062 14.214844 10.085938 14.214844 9.839844 L 14.214844 7.859375 C 14.214844 7.84375 14.230469 7.828125 14.246094 7.828125 L 15.695312 7.828125 C 15.714844 7.828125 15.730469 7.84375 15.730469 7.859375 L 15.730469 9.839844 C 15.730469 10.085938 15.929688 10.289062 16.179688 10.289062 L 18.15625 10.289062 C 18.171875 10.289062 18.1875 10.304688 18.1875 10.320312 Z M 18.1875 11.769531 " fill-opacity="1" fill-rule="nonzero"/></g></svg>